<svg width="345" height="300" viewBox="0 0 345 300" fill="none" xmlns="http://www.w3.org/2000/svg">
<g clip-path="url(#clip0)">
<circle cx="171" cy="150" r="150" fill="#4C2590"/>
<g clip-path="url(#clip1)">
<rect x="197" y="40" width="136.9" height="107.3" rx="6" fill="#FF9800"/>
<rect x="206.85" y="49.85" width="117.2" height="87.6" stroke="#9B660A" stroke-width="1.2" stroke-dasharray="2 3"/>
<rect x="296.9" y="77" width="48.1" height="27.75" rx="8" fill="#EB8400"/>
<circle cx="308.925" cy="90.875" r="4.625" fill="#CD6600"/>
</g>
<g clip-path="url(#clip2)">
<path d="M27.2036 124.015H16.5083C14.8514 124.015 13.5083 125.358 13.5083 127.015V209.045C13.5083 210.702 14.8514 212.045 16.5083 212.045H27.2036C28.8605 212.045 30.2036 210.702 30.2036 209.045V127.015C30.2036 125.358 28.8605 124.015 27.2036 124.015Z" fill="#EDE7F6"/>
<path d="M75.7719 124.015H65.0766C63.4197 124.015 62.0766 125.358 62.0766 127.015V209.045C62.0766 210.702 63.4197 212.045 65.0766 212.045H75.7719C77.4288 212.045 78.7719 210.702 78.7719 209.045V127.015C78.7719 125.358 77.4288 124.015 75.7719 124.015Z" fill="#EDE7F6"/>
<path d="M124.34 124.015H113.645C111.988 124.015 110.645 125.358 110.645 127.015V209.045C110.645 210.702 111.988 212.045 113.645 212.045H124.34C125.997 212.045 127.34 210.702 127.34 209.045V127.015C127.34 125.358 125.997 124.015 124.34 124.015Z" fill="#EDE7F6"/>
<path d="M71.1343 100.137C70.7163 100.047 70.2837 100.047 69.8657 100.137L2.36573 114.738C0.985224 115.037 0 116.258 0 117.67V126.35C0 128.007 1.34315 129.35 3 129.35H138C139.657 129.35 141 128.007 141 126.35V117.67C141 116.258 140.015 115.037 138.634 114.738L71.1343 100.137Z" fill="#FF9800"/>
<path d="M138 203.037H3C1.34315 203.037 0 204.38 0 206.037V221.187C0 222.844 1.34315 224.187 3 224.187H138C139.657 224.187 141 222.844 141 221.187V206.037C141 204.38 139.657 203.037 138 203.037Z" fill="#FF9800"/>
</g>
</g>
<defs>
<clipPath id="clip0">
<rect width="345" height="300" fill="white"/>
</clipPath>
<clipPath id="clip1">
<rect width="148" height="107" fill="white" transform="translate(197 40)"/>
</clipPath>
<clipPath id="clip2">
<rect width="142" height="124" fill="white" transform="translate(-1 100)"/>
</clipPath>
</defs>
</svg>
