<svg width="324" height="300" viewBox="0 0 324 300" fill="none" xmlns="http://www.w3.org/2000/svg">
<path d="M150 300C232.843 300 300 232.843 300 150C300 67.1573 232.843 0 150 0C67.1573 0 0 67.1573 0 150C0 232.843 67.1573 300 150 300Z" fill="#4C2590"/>
<path d="M196.9 92H72C68.6863 92 66 94.6863 66 98V193.3C66 196.614 68.6863 199.3 72 199.3H196.9C200.214 199.3 202.9 196.614 202.9 193.3V98C202.9 94.6863 200.214 92 196.9 92Z" fill="#FF9800"/>
<path d="M193.05 101.85H75.85V189.45H193.05V101.85Z" stroke="#9B660A" stroke-width="1.2" stroke-dasharray="2 3"/>
<path d="M206 129H173.9C169.482 129 165.9 132.582 165.9 137V148.75C165.9 153.168 169.482 156.75 173.9 156.75H206C210.418 156.75 214 153.168 214 148.75V137C214 132.582 210.418 129 206 129Z" fill="#EB8400"/>
<path d="M177.925 147.5C180.479 147.5 182.55 145.429 182.55 142.875C182.55 140.321 180.479 138.25 177.925 138.25C175.371 138.25 173.3 140.321 173.3 142.875C173.3 145.429 175.371 147.5 177.925 147.5Z" fill="#CD6600"/>
<path fill-rule="evenodd" clip-rule="evenodd" d="M259.05 6.50143C236.101 6.44208 217.538 22.5568 217.582 39.2909C217.619 53.9304 231.895 68.1696 250.833 71.5445L251.024 145.401L230.639 145.349L230.67 157.469L251.056 157.521L251.077 165.602L227.63 165.542L227.662 177.662L251.108 177.722L251.138 189.445C251.151 194.466 255.231 198.546 260.252 198.559C265.272 198.572 269.331 194.513 269.318 189.492L269.012 71.3223C287.226 67.6033 300.727 53.7799 300.69 39.5058C300.646 22.7717 282 6.56078 259.05 6.50143ZM259.089 21.2185C245.223 21.1826 234.004 29.2929 234.03 39.3334C234.056 49.374 245.317 57.5424 259.183 57.5783C273.048 57.6141 284.267 49.5038 284.241 39.4633C284.215 29.4228 272.954 21.2543 259.089 21.2185Z" fill="#FFCC80"/>
</svg>
