<svg width="339" height="300" viewBox="0 0 339 300" fill="none" xmlns="http://www.w3.org/2000/svg">
<circle cx="171" cy="150" r="150" fill="#4C2590"/>
<rect x="213" y="53" width="108" height="119" fill="#FF9800"/>
<path fill-rule="evenodd" clip-rule="evenodd" d="M206.649 147.137C206.649 145.39 208.065 143.973 209.813 143.973H210.417C212.164 143.973 213.58 145.39 213.58 147.137C213.58 148.884 212.164 150.301 210.417 150.301H209.813C208.065 150.301 206.649 148.884 206.649 147.137ZM219.335 147.137C219.335 145.39 220.752 143.973 222.499 143.973H223.707C225.455 143.973 226.871 145.39 226.871 147.137C226.871 148.884 225.455 150.301 223.707 150.301H222.499C220.752 150.301 219.335 148.884 219.335 147.137ZM232.626 147.137C232.626 145.39 234.043 143.973 235.79 143.973H236.998C238.745 143.973 240.162 145.39 240.162 147.137C240.162 148.884 238.745 150.301 236.998 150.301H235.79C234.043 150.301 232.626 148.884 232.626 147.137ZM245.917 147.137C245.917 145.39 247.333 143.973 249.081 143.973H250.289C252.036 143.973 253.452 145.39 253.452 147.137C253.452 148.884 252.036 150.301 250.289 150.301H249.081C247.333 150.301 245.917 148.884 245.917 147.137ZM259.207 147.137C259.207 145.39 260.624 143.973 262.371 143.973H263.579C265.327 143.973 266.743 145.39 266.743 147.137C266.743 148.884 265.327 150.301 263.579 150.301H262.371C260.624 150.301 259.207 148.884 259.207 147.137ZM272.498 147.137C272.498 145.39 273.915 143.973 275.662 143.973H276.87C278.617 143.973 280.034 145.39 280.034 147.137C280.034 148.884 278.617 150.301 276.87 150.301H275.662C273.915 150.301 272.498 148.884 272.498 147.137ZM285.789 147.137C285.789 145.39 287.205 143.973 288.953 143.973H290.161C291.908 143.973 293.324 145.39 293.324 147.137C293.324 148.884 291.908 150.301 290.161 150.301H288.953C287.205 150.301 285.789 148.884 285.789 147.137ZM299.079 147.137C299.079 145.39 300.496 143.973 302.243 143.973H303.451C305.199 143.973 306.615 145.39 306.615 147.137C306.615 148.884 305.199 150.301 303.451 150.301H302.243C300.496 150.301 299.079 148.884 299.079 147.137ZM312.37 147.137C312.37 145.39 313.787 143.973 315.534 143.973H316.742C318.489 143.973 319.906 145.39 319.906 147.137C319.906 148.884 318.489 150.301 316.742 150.301H315.534C313.787 150.301 312.37 148.884 312.37 147.137ZM325.661 147.137C325.661 145.39 327.077 143.973 328.825 143.973H329.429C331.176 143.973 332.592 145.39 332.592 147.137C332.592 148.884 331.176 150.301 329.429 150.301H328.825C327.077 150.301 325.661 148.884 325.661 147.137Z" fill="#FFCC80"/>
<path fill-rule="evenodd" clip-rule="evenodd" d="M206.649 109.173C206.649 107.425 208.065 106.009 209.813 106.009H210.417C212.164 106.009 213.58 107.425 213.58 109.173C213.58 110.92 212.164 112.336 210.417 112.336H209.813C208.065 112.336 206.649 110.92 206.649 109.173ZM219.335 109.173C219.335 107.425 220.752 106.009 222.499 106.009H223.707C225.455 106.009 226.871 107.425 226.871 109.173C226.871 110.92 225.455 112.336 223.707 112.336H222.499C220.752 112.336 219.335 110.92 219.335 109.173ZM232.626 109.173C232.626 107.425 234.043 106.009 235.79 106.009H236.998C238.745 106.009 240.162 107.425 240.162 109.173C240.162 110.92 238.745 112.336 236.998 112.336H235.79C234.043 112.336 232.626 110.92 232.626 109.173ZM245.917 109.173C245.917 107.425 247.333 106.009 249.081 106.009H250.289C252.036 106.009 253.452 107.425 253.452 109.173C253.452 110.92 252.036 112.336 250.289 112.336H249.081C247.333 112.336 245.917 110.92 245.917 109.173ZM259.207 109.173C259.207 107.425 260.624 106.009 262.371 106.009H263.579C265.327 106.009 266.743 107.425 266.743 109.173C266.743 110.92 265.327 112.336 263.579 112.336H262.371C260.624 112.336 259.207 110.92 259.207 109.173ZM272.498 109.173C272.498 107.425 273.915 106.009 275.662 106.009H276.87C278.617 106.009 280.034 107.425 280.034 109.173C280.034 110.92 278.617 112.336 276.87 112.336H275.662C273.915 112.336 272.498 110.92 272.498 109.173ZM285.789 109.173C285.789 107.425 287.205 106.009 288.953 106.009H290.161C291.908 106.009 293.324 107.425 293.324 109.173C293.324 110.92 291.908 112.336 290.161 112.336H288.953C287.205 112.336 285.789 110.92 285.789 109.173ZM299.079 109.173C299.079 107.425 300.496 106.009 302.243 106.009H303.451C305.199 106.009 306.615 107.425 306.615 109.173C306.615 110.92 305.199 112.336 303.451 112.336H302.243C300.496 112.336 299.079 110.92 299.079 109.173ZM312.37 109.173C312.37 107.425 313.787 106.009 315.534 106.009H316.742C318.489 106.009 319.906 107.425 319.906 109.173C319.906 110.92 318.489 112.336 316.742 112.336H315.534C313.787 112.336 312.37 110.92 312.37 109.173ZM325.661 109.173C325.661 107.425 327.077 106.009 328.825 106.009H329.429C331.176 106.009 332.592 107.425 332.592 109.173C332.592 110.92 331.176 112.336 329.429 112.336H328.825C327.077 112.336 325.661 110.92 325.661 109.173Z" fill="#FFCC80"/>
<path fill-rule="evenodd" clip-rule="evenodd" d="M206.649 73.7389C206.649 71.9916 208.065 70.5752 209.813 70.5752H210.417C212.164 70.5752 213.58 71.9916 213.58 73.7389C213.58 75.4862 212.164 76.9026 210.417 76.9026H209.813C208.065 76.9026 206.649 75.4862 206.649 73.7389ZM219.335 73.7389C219.335 71.9916 220.752 70.5752 222.499 70.5752H223.707C225.455 70.5752 226.871 71.9916 226.871 73.7389C226.871 75.4862 225.455 76.9026 223.707 76.9026H222.499C220.752 76.9026 219.335 75.4862 219.335 73.7389ZM232.626 73.7389C232.626 71.9916 234.043 70.5752 235.79 70.5752H236.998C238.745 70.5752 240.162 71.9916 240.162 73.7389C240.162 75.4862 238.745 76.9026 236.998 76.9026H235.79C234.043 76.9026 232.626 75.4862 232.626 73.7389ZM245.917 73.7389C245.917 71.9916 247.333 70.5752 249.081 70.5752H250.289C252.036 70.5752 253.452 71.9916 253.452 73.7389C253.452 75.4862 252.036 76.9026 250.289 76.9026H249.081C247.333 76.9026 245.917 75.4862 245.917 73.7389ZM259.207 73.7389C259.207 71.9916 260.624 70.5752 262.371 70.5752H263.579C265.327 70.5752 266.743 71.9916 266.743 73.7389C266.743 75.4862 265.327 76.9026 263.579 76.9026H262.371C260.624 76.9026 259.207 75.4862 259.207 73.7389ZM272.498 73.7389C272.498 71.9916 273.915 70.5752 275.662 70.5752H276.87C278.617 70.5752 280.034 71.9916 280.034 73.7389C280.034 75.4862 278.617 76.9026 276.87 76.9026H275.662C273.915 76.9026 272.498 75.4862 272.498 73.7389ZM285.789 73.7389C285.789 71.9916 287.205 70.5752 288.953 70.5752H290.161C291.908 70.5752 293.324 71.9916 293.324 73.7389C293.324 75.4862 291.908 76.9026 290.161 76.9026H288.953C287.205 76.9026 285.789 75.4862 285.789 73.7389ZM299.079 73.7389C299.079 71.9916 300.496 70.5752 302.243 70.5752H303.451C305.199 70.5752 306.615 71.9916 306.615 73.7389C306.615 75.4862 305.199 76.9026 303.451 76.9026H302.243C300.496 76.9026 299.079 75.4862 299.079 73.7389ZM312.37 73.7389C312.37 71.9916 313.787 70.5752 315.534 70.5752H316.742C318.489 70.5752 319.906 71.9916 319.906 73.7389C319.906 75.4862 318.489 76.9026 316.742 76.9026H315.534C313.787 76.9026 312.37 75.4862 312.37 73.7389ZM325.661 73.7389C325.661 71.9916 327.077 70.5752 328.825 70.5752H329.429C331.176 70.5752 332.592 71.9916 332.592 73.7389C332.592 75.4862 331.176 76.9026 329.429 76.9026H328.825C327.077 76.9026 325.661 75.4862 325.661 73.7389Z" fill="#FFCC80"/>
<path fill-rule="evenodd" clip-rule="evenodd" d="M206.649 187L206.649 44L214.255 44L214.255 187L206.649 187Z" fill="#FFCC80"/>
<path fill-rule="evenodd" clip-rule="evenodd" d="M339 177.872L196 177.872V170.266L339 170.266V177.872Z" fill="#FFCC80"/>
<path fill-rule="evenodd" clip-rule="evenodd" d="M321 76.1003L273.169 135.33L247.082 114.234L227.119 149L219 145.002L244.402 100.762L271.745 122.873L313.636 71L321 76.1003Z" fill="#EDE7F6"/>
<path d="M79.6118 179.681C75.5589 168.21 64.7034 160 51.9483 160C35.9799 160 22.9887 172.868 22.5954 188.892C10.0497 189.288 0 199.679 0 212.44C0 225.452 10.4493 236 23.3391 236H111.425C122.236 236 131 227.153 131 216.24C131 205.327 122.236 196.48 111.425 196.48L111.372 196.475C110.598 185.434 101.479 176.72 90.3448 176.72C86.4253 176.72 82.7556 177.8 79.6118 179.681Z" fill="#EDE7F6"/>
<path fill-rule="evenodd" clip-rule="evenodd" d="M137.733 198C137.733 183.162 125.317 171.133 110 171.133V167C127.673 167 142 180.879 142 198H137.733Z" fill="#FF9800"/>
<path fill-rule="evenodd" clip-rule="evenodd" d="M150.714 198C150.714 176.014 132.486 158.19 110 158.19V154C134.853 154 155 173.699 155 198H150.714Z" fill="#FF9800"/>
<path fill-rule="evenodd" clip-rule="evenodd" d="M164.63 198C164.63 168.34 140.171 144.296 110 144.296V140C142.585 140 169 165.967 169 198H164.63Z" fill="#FF9800"/>
</svg>
