<svg width="587" height="614" viewBox="0 0 587 614" fill="none" xmlns="http://www.w3.org/2000/svg">
<g clip-path="url(#clip0)">
<ellipse cx="336.5" cy="285" rx="250.5" ry="250" fill="#D2C1EB"/>
<path d="M445.438 614.221C444.772 614.222 444.132 613.937 443.653 613.427C443.174 612.918 442.894 612.223 442.872 611.49L420.695 435.661H436.58L448.004 611.49C447.983 612.223 447.703 612.918 447.224 613.427C446.745 613.937 446.105 614.222 445.438 614.221Z" fill="#EBB628"/>
<path d="M420.695 435.661H436.661L437.081 443.223L422.376 449.105L420.695 435.661Z" fill="black" fill-opacity="0.1"/>
<path d="M326.629 614.221C327.295 614.222 327.935 613.937 328.414 613.427C328.893 612.918 329.173 612.223 329.195 611.49L351.372 435.661H335.487L324.062 611.49C324.084 612.223 324.364 612.918 324.843 613.427C325.322 613.937 325.962 614.222 326.629 614.221Z" fill="#EBB628"/>
<path d="M351.372 435.661H335.406L334.986 443.223L349.691 449.105L351.372 435.661Z" fill="black" fill-opacity="0.1"/>
<path d="M341.368 423.38H453.264C459.645 423.38 464.818 428.553 464.818 434.934C464.818 437.718 462.561 439.976 459.777 439.976H334.856C332.071 439.976 329.814 437.718 329.814 434.934C329.814 428.553 334.987 423.38 341.368 423.38Z" fill="#9C75E0"/>
<path d="M330.041 254.768C330.041 254.768 332.389 277.78 330.65 277.906C309.105 279.452 284.3 282.107 280.468 283.494C275.242 285.052 260.037 289.535 257.936 291.476C255.285 293.93 253.991 301.98 253.991 302.971C253.991 303.963 255.255 309.198 255.255 309.198C255.255 309.198 258.911 309.295 258.961 305.316C259.033 300.602 263.373 299.677 266.309 298.804C267.536 298.438 270.511 299.043 270.813 300.862C271.116 302.681 266.452 304.223 265.578 305.417C264.251 307.202 265.217 309.521 265.238 309.568L273.771 306.333C275.032 305.858 281.443 300.089 284.548 294.678C284.548 294.678 345.258 313.496 360.354 304.026C366.06 300.451 364.976 288.997 362.652 271.419L330.041 254.768Z" fill="#B65A18"/>
<path d="M421.132 431.565C362.635 431.632 355.548 432.132 322.44 430.657C322.44 430.657 324.226 414.137 318.953 400.932C303.45 362.111 283.565 369.039 283.565 369.039C298.139 360.729 317.705 353.187 362.673 350.439C367.106 338.843 367.505 329.26 368.354 320.71L442.778 320.601C442.778 320.601 452.785 338.713 462.667 375.295C472.263 410.826 444.597 431.539 421.132 431.565Z" fill="url(#paint0_linear)"/>
<mask id="mask0" mask-type="alpha" maskUnits="userSpaceOnUse" x="283" y="320" width="182" height="112">
<path d="M421.132 431.565C362.635 431.632 355.548 432.132 322.44 430.657C322.44 430.657 324.226 414.137 318.953 400.932C303.45 362.111 283.565 369.039 283.565 369.039C298.139 360.729 317.705 353.187 362.673 350.439C367.106 338.843 367.505 329.26 368.354 320.71L442.778 320.601C442.778 320.601 452.785 338.713 462.667 375.295C472.263 410.826 444.597 431.539 421.132 431.565Z" fill="url(#paint1_linear)"/>
</mask>
<g mask="url(#mask0)">
<path d="M399.783 374.274C394.115 362.65 385.44 350.979 360.119 344.473L348.626 347.037C373.247 350.88 388.437 359.969 399.783 374.274Z" fill="black" fill-opacity="0.2"/>
</g>
<path d="M264.436 445.547C261.852 431.573 264.885 408.041 285.972 411.545C307.059 415.049 303.332 428.518 303.311 437.442C303.253 463.126 311.962 476.095 314.811 498.195C318.743 528.718 312.416 565.577 306.731 589.891L311.391 600.205C311.391 600.205 303.295 607.768 284.615 609.028C265.935 610.289 279.246 602.126 279.246 602.126C288.379 593.134 293.388 586.656 291.035 569.548C289.35 557.292 268.41 467.054 264.436 445.547Z" fill="#B65A18"/>
<path d="M309.492 595.634C309.492 595.634 319.067 614.335 306.971 614.369C301.799 614.369 261.595 614.251 261.595 614.251C261.595 614.251 260.028 604.651 273.292 602.861C275.137 602.613 279.355 602.021 279.355 602.021C279.355 602.021 274.485 607.873 285.35 606.915C303.521 605.302 303.698 593.714 309.492 595.634Z" fill="#562F9A"/>
<path d="M295.589 370.392C276.334 361.115 273.893 385.408 276.884 396.743C278.107 401.428 290.968 438.602 294.909 451.168C298.849 463.735 328.549 537.373 331.6 581.085C331.633 581.56 336.078 592.874 346.792 560.368C350.766 548.297 340.154 549.654 340.754 544.339C343.653 518.778 347.834 464.491 341.922 435.102C339.536 423.237 324.159 384.151 295.589 370.392Z" fill="#C36F0B"/>
<path d="M341.074 545.889C341.074 545.889 361.131 547.776 355.249 558.342C352.729 562.855 331.247 600.075 331.247 600.075C331.247 600.075 322.953 596.714 327.886 584.295C328.575 582.564 331.146 576.367 331.146 576.367C331.146 576.367 334.087 583.316 338.166 573.207C344.38 557.868 337.019 554.141 341.074 545.889Z" fill="#562F9A"/>
<path d="M360.657 316.597C360.657 316.597 355.686 289.523 346.725 263.323C346.725 263.323 343.54 261.726 321.907 250.718C321.907 250.718 321.386 219.859 337.414 205.213C347.998 195.549 369.673 188.407 369.673 188.407L411.334 186.184C419.367 186.659 439.522 189.092 457.504 203.309C475.28 217.359 483.292 233.274 483.292 233.274C483.292 233.274 459.764 238.795 442.639 259.13L454.621 316.597C454.621 316.597 440.761 324.323 408.544 325.163C369.194 326.172 360.657 316.597 360.657 316.597Z" fill="url(#paint2_linear)"/>
<path d="M443 265C443 265 438.241 251.159 423.636 240.715C436 247 441.5 259 441.5 259L443 265Z" fill="black" fill-opacity="0.4"/>
<path d="M347.043 274.571C347.043 274.571 348.146 264.717 352.339 246.772C346.962 262.247 345.908 271.345 345.908 271.345L347.043 274.571Z" fill="black" fill-opacity="0.4"/>
<path d="M340.838 283.767C340.969 288.628 353.023 284.939 353.102 286.817C353.162 287.138 353.155 287.468 353.083 287.786C353.011 288.105 352.874 288.405 352.682 288.67C352.128 289.447 351.762 290.464 352.535 291.964C353.569 293.972 350.124 294.484 351.17 297.724C352.216 300.963 350.598 300.551 350.397 303.879C350.174 307.639 366.005 310.904 370.732 309.072C371.199 308.88 371.616 308.584 371.95 308.206C378.546 308.442 473.507 311.601 481.015 300.795C489.636 288.405 472.049 237.261 472.049 237.261C455.294 243.471 441.345 259.134 441.345 259.134L445.66 277.221C419.409 278.582 390.083 287.304 374.996 292.346C374.912 289.502 374.194 287.703 373.736 285.804C373.362 284.254 371.559 281.263 365.261 281.107C358.963 280.952 340.767 281.229 340.838 283.767Z" fill="#C36F0B"/>
<path d="M472.049 237.261C472.049 237.261 455.836 241.807 441.345 259.129L442.946 265.923C442.946 265.923 456.953 253.214 475.587 249.285L472.049 237.261Z" fill="#B65A18"/>
<path d="M384.525 156.825C384.525 156.825 389.546 172.878 411.334 186.18C411.334 186.18 386.794 196.831 366.799 189.087L384.525 156.825Z" fill="#C36F0B"/>
<path d="M366.782 189.083C371.323 190.782 376.112 191.722 380.958 191.865C391.831 182.39 386.252 161.215 384.874 157.9C384.773 157.657 384.626 157.35 384.453 156.989L366.782 189.083Z" fill="#B65A18"/>
<path d="M460.457 233.572C446.324 215.527 458.176 195.516 454.966 184.701C448.693 163.543 421.434 189.15 410.62 162.959C410.62 162.959 394.625 174.164 392.974 171.962L351.602 168.105C336.578 152.077 341.939 134.528 348.061 127.772C348.061 127.772 366.967 106.235 388.495 116.676C400.036 122.276 409.435 139.842 411.75 153.648C414.25 168.576 436.576 124.238 469.062 139.254C490.329 149.123 474.196 179.848 499.056 180.584C531.709 181.554 547.217 213.968 508.937 241.975C490.535 255.457 469.835 245.55 460.457 233.572Z" fill="#562F9A"/>
<path d="M414.141 156.161L410.217 163.77" stroke="#FF9800" stroke-width="10" stroke-linecap="round" stroke-linejoin="round"/>
<path d="M515.095 260.767C510.473 252.761 510.741 243.952 515.695 241.092C520.648 238.233 528.411 242.404 533.033 250.41C537.655 258.416 537.387 267.225 532.433 270.084C527.48 272.944 519.717 268.773 515.095 260.767Z" fill="#562F9A"/>
<path d="M517.462 237.656L511.026 242.773" stroke="#FF9800" stroke-width="10" stroke-linecap="round" stroke-linejoin="round"/>
<path d="M352.908 141.141C345.706 141.611 340.724 152.144 344.064 161.728C347.404 171.311 360.71 190.44 369.81 189.781C384.549 188.718 392.115 168.278 391.792 159.732C391.792 159.732 391.67 149.934 380.843 152.169C371.94 153.997 363.121 151.59 359.302 146.75C355.483 141.91 352.908 141.141 352.908 141.141Z" fill="#C36F0B"/>
<path d="M304.286 308.778H399.516C400.029 308.778 400.534 308.648 400.984 308.4C401.434 308.153 401.814 307.795 402.088 307.361C402.362 306.927 402.522 306.43 402.553 305.918C402.584 305.405 402.484 304.893 402.263 304.429L372.958 242.643C372.253 241.156 371.141 239.9 369.75 239.02C368.359 238.14 366.747 237.673 365.102 237.673H269.872C269.359 237.673 268.854 237.803 268.404 238.05C267.954 238.298 267.574 238.656 267.3 239.09C267.026 239.524 266.866 240.02 266.835 240.533C266.804 241.046 266.904 241.558 267.124 242.021L296.429 303.816C297.135 305.302 298.248 306.556 299.639 307.435C301.03 308.313 302.641 308.779 304.286 308.778Z" fill="#AEAEAE"/>
<path d="M398.696 307.223L369.98 246.668C369.288 245.211 368.197 243.98 366.834 243.118C365.471 242.256 363.891 241.799 362.278 241.799H273.574C273.07 241.799 272.575 241.926 272.134 242.169C271.693 242.413 271.321 242.763 271.052 243.189C270.783 243.615 270.627 244.101 270.597 244.604C270.567 245.107 270.664 245.609 270.881 246.063L298.11 303.497C298.552 304.43 299.249 305.22 300.12 305.775C300.991 306.33 302.001 306.629 303.034 306.635L398.696 307.223Z" fill="#CCCCCC"/>
<path d="M354.313 273.906V308.778H333.936L354.313 273.906Z" fill="#909090"/>
<path d="M285.829 308.778H334.077L354.313 273.906H306.065L285.829 308.778Z" fill="#AEAEAE"/>
<path d="M385.153 613.801L337.927 319.701H354.186L400.949 613.338L385.153 613.801Z" fill="#EBB41C"/>
<path d="M356.834 335.247L339.392 328.622L337.927 320.122H354.106L356.834 335.247Z" fill="black" fill-opacity="0.07"/>
<path d="M462.356 308.778H172.361L180.764 319.823H462.356C463.82 319.823 465.224 319.242 466.26 318.208C467.296 317.174 467.879 315.771 467.881 314.307C467.881 312.842 467.299 311.436 466.263 310.4C465.227 309.364 463.822 308.782 462.356 308.782V308.778Z" fill="#EBB628"/>
<path d="M118.803 524.499C96.6735 524.499 78.7464 525.291 78.6372 526.273C78.7464 527.228 96.6735 528.046 118.803 528.046C140.877 528.046 158.859 527.255 158.968 526.273C158.859 525.263 140.932 524.499 118.803 524.499ZM119.703 527.555C103.113 527.555 89.6881 526.955 89.6881 526.218C89.6881 525.482 103.14 524.881 119.703 524.881C136.266 524.881 149.718 525.482 149.718 526.218C149.772 526.955 136.293 527.555 119.703 527.555Z" fill="#FF9800"/>
<path d="M119.703 527.555C136.28 527.555 149.718 526.957 149.718 526.218C149.718 525.48 136.28 524.881 119.703 524.881C103.126 524.881 89.6881 525.48 89.6881 526.218C89.6881 526.957 103.126 527.555 119.703 527.555Z" fill="#D77000"/>
<path d="M141.778 373.306C133.182 393.689 127.07 415.109 123.578 436.992C120.085 458.876 119.157 481.087 120.849 503.189C121.804 515.549 123.632 527.883 126.224 539.998C126.716 542.181 130.072 541.28 129.581 539.097C124.942 517.65 122.977 495.739 123.55 473.829C124.151 452.027 127.343 430.252 133.046 409.187C136.239 397.291 140.304 385.612 145.107 374.261C145.489 373.415 144.725 372.351 143.879 372.133C142.896 371.805 142.105 372.46 141.778 373.306Z" fill="#6039A4"/>
<path d="M142.896 465.561C134.301 484.17 129.199 504.225 127.807 524.663C127.425 530.366 127.316 536.123 127.534 541.826C127.643 544.063 131.109 544.063 131 541.826C130.263 521.88 133.182 501.933 139.595 483.051C141.396 477.73 143.497 472.437 145.898 467.307C146.853 465.315 143.851 463.542 142.896 465.561Z" fill="#6039A4"/>
<path d="M99.1565 377.89C104.641 396.827 108.543 416.173 111.435 435.655C114.328 455.137 116.183 474.756 117.684 494.321C118.53 505.426 119.294 516.559 119.976 527.719C120.14 529.956 123.605 529.956 123.441 527.719C122.159 507.936 120.822 488.099 118.912 468.371C116.947 448.698 114.382 428.997 110.48 409.597C108.297 398.6 105.678 387.74 102.54 376.962C101.885 374.807 98.5835 375.707 99.1565 377.89Z" fill="#6039A4"/>
<path d="M78.8555 434.755C83.6033 439.612 86.5229 445.806 89.0878 451.972C91.9256 458.794 94.4087 465.779 96.5643 472.874C100.821 486.899 103.877 501.306 105.46 515.849C106.36 524.008 106.851 532.221 106.906 540.489C106.906 542.726 110.371 542.726 110.371 540.489C110.262 525.454 108.707 510.42 105.842 495.685C102.949 480.978 98.6381 466.461 92.9898 452.545C90.0429 445.287 86.8504 437.975 81.2567 432.326C79.7014 430.689 77.2456 433.145 78.8555 434.755Z" fill="#6039A4"/>
<path d="M102.786 503.653C100.221 500.515 97.0281 498.359 94.3541 497.295C91.68 496.231 89.5517 496.231 88.9241 496.913C88.2965 497.595 88.433 499.696 89.3607 502.234C90.2884 504.771 91.8165 507.827 94.1085 510.665C96.4006 513.503 99.1292 515.577 101.53 516.968C103.877 518.36 105.896 518.933 106.496 518.578C107.233 518.087 107.67 516.013 107.179 513.203C106.742 510.365 105.35 506.791 102.786 503.653Z" fill="#6039A4"/>
<path d="M113.782 480.132C115.91 469.681 113.946 460.568 111.981 460.186C110.071 459.858 104.941 467.607 102.867 477.894C100.794 488.181 102.922 497.404 104.314 497.731C106.06 498.168 111.654 490.582 113.782 480.132Z" fill="#BA93FE"/>
<path d="M104.397 497.649C106.562 495.445 101.362 486.827 92.7827 478.399C84.2036 469.971 75.4938 464.926 73.3288 467.13C71.1638 469.334 76.3635 477.953 84.9426 486.38C93.5217 494.808 102.232 499.853 104.397 497.649Z" fill="#6039A4"/>
<path d="M120.276 510.119C121.286 505.808 121.831 501.579 122.05 497.704C122.268 493.857 122.159 490.337 121.777 487.472C121.095 481.605 119.703 478.085 118.748 478.085C117.793 478.085 116.347 481.496 114.737 486.899C113.946 489.573 113.018 492.765 112.172 496.231C111.272 499.751 110.317 503.543 109.389 507.582C108.434 511.593 107.615 515.468 106.933 518.987C106.251 522.507 105.651 525.809 105.159 528.592C104.259 534.131 104.041 537.87 104.668 538.197C105.46 538.579 108.297 536.014 111.49 531.103C113.1 528.647 114.737 525.563 116.292 522.044C117.875 518.469 119.266 514.431 120.276 510.119Z" fill="#9C75E0"/>
<path d="M143.005 514.485C146.307 508.619 148.763 502.97 150.155 498.605C151.601 494.239 151.955 491.183 151.11 490.61C150.318 490.064 147.59 491.619 144.179 494.757C140.768 497.95 136.648 502.861 133.237 508.892C129.826 514.976 127.807 521.061 126.879 525.645C126.388 527.937 126.197 529.847 126.197 531.239C126.197 531.676 126.033 532.249 126.361 532.958C126.415 533.122 126.525 533.286 126.634 533.395C126.743 533.558 127.016 533.722 127.179 533.777C127.561 533.886 127.807 533.777 127.971 533.668C128.298 533.449 128.516 533.067 128.407 532.822C128.298 532.549 128.134 532.658 128.08 532.658C128.025 532.712 127.971 532.712 127.916 532.767C127.862 532.822 127.971 532.767 127.916 532.767C127.916 532.767 127.862 532.767 127.807 532.713C127.752 532.658 127.698 532.549 127.698 532.549C127.698 532.549 127.698 532.658 127.698 532.767C127.698 532.767 127.698 532.767 127.698 532.822L127.916 532.658C127.916 532.658 127.916 532.658 127.971 532.658C128.08 532.658 128.298 532.603 128.707 532.713H128.817H128.871H128.926C128.98 532.713 129.035 532.712 129.09 532.658C130.208 531.812 131.545 530.475 133.046 528.701C136.075 525.318 139.704 520.297 143.005 514.485Z" fill="#9C75E0"/>
<path d="M134.165 488.018C133.319 480.596 131.436 474.102 129.581 469.463C127.725 464.879 125.897 462.096 124.887 462.259C123.932 462.423 123.032 465.561 122.541 470.472C122.104 475.384 122.104 482.096 122.977 489.245C123.414 492.874 123.987 496.231 124.696 499.314C125.379 502.397 126.143 505.071 126.661 507.309C127.261 509.546 127.671 511.375 128.053 512.739C128.38 514.076 128.68 514.976 129.062 515.031C129.499 515.14 130.29 514.594 131.136 513.312C131.982 512.029 132.91 509.956 133.537 507.391C134.165 504.771 134.492 501.743 134.601 498.495C134.683 495.33 134.574 491.756 134.165 488.018Z" fill="#6039A4"/>
<path d="M88.0237 452.245C83.7125 448.098 79.0192 445.205 75.281 443.541C71.5428 441.876 68.8142 441.522 68.1866 442.313C67.5863 443.05 68.5686 445.615 70.6969 448.916C72.8253 452.218 76.1269 456.338 80.2471 460.267C84.3946 464.224 88.7332 467.198 92.1985 469.163C95.6639 471.127 98.2833 472 98.8018 471.509C99.4839 470.909 98.9655 468.208 97.1919 464.524C95.4728 460.922 92.3895 456.393 88.0237 452.245Z" fill="#BA93FE"/>
<path d="M81.5569 423.922C76.427 414.808 68.9233 409.515 67.2043 410.579C65.5398 411.589 66.8223 420.566 71.7884 429.406C76.7545 438.247 84.1491 443.759 85.4861 443.104C87.1233 442.258 86.6867 433.036 81.5569 423.922Z" fill="#6039A4"/>
<path d="M100.603 441.358C99.7022 435.164 97.5193 429.789 95.2818 426.269C93.0443 422.694 90.8614 420.893 89.961 421.248C89.0606 421.576 88.5694 424.277 88.5148 428.233C88.4603 432.19 88.7331 437.347 89.5244 442.941C90.3157 448.534 91.5982 453.555 92.7715 457.348C93.9994 461.141 95.2273 463.651 95.9094 463.651C96.8099 463.706 98.3652 461.359 99.5931 457.348C100.821 453.309 101.503 447.552 100.603 441.358Z" fill="#9C75E0"/>
<path d="M157.74 475.602C162.87 472.082 167.181 468.344 170.101 465.206C173.048 462.123 174.63 459.667 174.112 458.739C173.621 457.893 170.701 457.948 166.472 459.121C162.27 460.295 156.758 462.641 151.382 466.325C146.007 470.008 141.941 474.429 139.322 477.949C136.757 481.523 135.693 484.252 136.129 484.825C136.73 485.507 139.595 484.934 143.551 483.324C147.535 481.796 152.61 479.122 157.74 475.602Z" fill="#BA93FE"/>
<path d="M160.823 448.343C164.398 440.812 166.417 433.527 167.236 428.015C168.027 422.53 167.727 418.956 166.799 418.628C165.871 418.301 163.552 421.03 160.605 425.505C157.658 430.034 154.138 436.337 150.728 443.486C147.317 450.635 144.752 457.402 143.142 462.587C141.532 467.716 140.904 471.236 141.532 471.646C142.269 472.137 145.27 470.09 149.063 466.052C152.774 461.986 157.249 455.874 160.823 448.343Z" fill="#6039A4"/>
<path d="M150.961 450.016C153.365 436.806 152.851 425.649 149.812 425.096C146.773 424.542 142.359 434.802 139.954 448.012C137.55 461.222 138.064 472.379 141.103 472.932C144.142 473.485 148.556 463.225 150.961 450.016Z" fill="#BA93FE"/>
<path d="M154.411 361.027C157.44 354.56 159.596 348.448 160.823 343.755C162.051 339.062 162.27 335.869 161.424 335.324C160.578 334.832 157.904 336.715 154.602 340.399C151.301 344.082 147.453 349.567 144.315 356.252C141.177 362.91 139.513 369.431 138.831 374.343C138.149 379.254 138.394 382.502 139.104 382.774C139.949 383.102 142.296 380.864 145.188 376.962C147.972 373.033 151.382 367.494 154.411 361.027Z" fill="#BA93FE"/>
<path d="M145.843 361.027C146.28 354.315 146.062 348.175 145.461 343.591C144.861 339.062 143.906 336.06 142.951 335.924C141.996 335.76 140.168 338.325 138.476 342.691C136.757 347.057 135.174 353.251 134.683 360.236C134.192 367.221 135.12 373.634 136.293 378.163C137.466 382.693 138.967 385.476 139.704 385.476C140.604 385.476 141.941 382.638 143.115 378.218C144.288 373.77 145.407 367.767 145.843 361.027Z" fill="#6039A4"/>
<path d="M153.893 393.089C155.966 389.787 157.631 386.431 158.913 383.32C160.141 380.182 161.042 377.235 161.587 374.67C162.652 369.595 162.379 366.239 161.478 365.857C160.578 365.475 158.231 367.822 155.121 371.723C153.62 373.634 151.874 375.98 150.045 378.6C148.244 381.219 146.307 384.03 144.397 387.14C142.487 390.169 140.713 393.17 139.158 395.954C137.603 398.737 136.266 401.274 135.202 403.539C133.073 408.014 131.955 411.179 132.528 411.643C133.155 412.244 136.32 411.016 140.468 407.905C142.542 406.35 144.834 404.331 147.126 401.82C149.527 399.337 151.819 396.39 153.893 393.089Z" fill="#BA93FE"/>
<path d="M128.762 388.778C128.135 385.421 127.48 382.283 126.852 379.446C126.579 377.999 126.224 376.662 125.952 375.38C125.788 374.752 125.624 374.152 125.515 373.524C125.406 372.924 125.242 372.351 125.133 371.805C124.123 367.44 123.332 364.384 122.241 364.22C121.34 364.056 119.348 366.676 118.039 371.642C117.875 372.242 117.711 372.924 117.547 373.552C117.384 374.234 117.329 374.943 117.22 375.626C117.002 377.126 116.893 378.654 116.838 380.264C116.783 383.511 117.056 387.086 117.684 390.715C119.075 397.973 121.64 403.949 123.769 408.151C125.952 412.353 127.834 414.918 128.517 414.809C129.417 414.645 130.29 411.562 130.427 406.705C130.699 401.957 130.045 395.49 128.762 388.778Z" fill="#6039A4"/>
<path d="M144.834 425.095C148.79 419.665 151.382 414.044 152.719 409.733C154.056 405.422 154.22 402.366 153.32 401.902C152.474 401.411 149.964 403.021 146.716 406.022C143.469 408.997 139.513 413.39 135.72 418.547C131.927 423.704 129.117 428.943 127.343 433.008C125.542 437.074 124.833 439.939 125.379 440.43C126.061 441.031 128.899 439.939 132.582 437.402C136.348 434.755 140.877 430.525 144.834 425.095Z" fill="#9C75E0"/>
<path d="M101.449 367.44C98.3106 360.836 94.2449 355.652 90.8887 352.241C87.5325 348.83 84.8585 347.166 84.0126 347.657C83.1667 348.148 83.4669 351.286 84.8039 355.816C86.1409 360.345 88.433 366.157 91.298 372.188C92.7442 375.216 94.1904 377.999 95.5001 380.564C96.1277 381.847 96.8371 383.075 97.4647 384.193C98.0923 385.312 98.6926 386.431 99.2383 387.386C101.476 391.342 103.14 393.935 103.877 393.853C104.723 393.744 105.842 390.715 105.842 385.749C105.842 384.521 105.787 383.129 105.569 381.738C105.405 380.292 105.132 378.791 104.777 377.208C104.177 374.098 103.004 370.741 101.449 367.44Z" fill="#6039A4"/>
<path d="M101.203 391.697C93.3718 381.819 83.9307 376.553 82.43 377.89C80.9838 379.173 84.8312 389.078 92.4441 398.682C100.084 408.287 109.252 413.935 110.426 413.089C111.926 412.08 109.034 401.575 101.203 391.697Z" fill="#8861CC"/>
<path d="M105.46 413.826C102.431 410.634 99.1019 408.232 96.346 406.677C93.5628 405.122 91.3799 404.549 90.5886 405.122C89.8519 405.722 89.8519 408.069 90.916 411.152C91.9802 414.235 94.1085 418.137 97.4102 421.548C100.712 424.959 104.559 427.142 107.643 428.315C110.726 429.434 113.072 429.543 113.564 428.997C114.164 428.315 113.618 426.05 112.227 423.24C110.78 420.402 108.543 416.991 105.46 413.826Z" fill="#BA93FE"/>
<path d="M111.544 443.541C107.915 436.938 104.123 431.126 101.094 427.006C98.065 422.885 95.6639 420.511 94.8453 420.757C94.1085 421.03 94.2177 424.222 95.4456 429.079C96.6735 433.936 99.0747 440.485 102.813 447.279C106.551 454.046 110.971 459.694 114.601 463.542C118.23 467.389 121.067 469.463 121.586 469.19C122.268 468.808 121.586 465.725 119.812 461.031C117.984 456.338 115.228 450.172 111.544 443.541Z" fill="#BA93FE"/>
<path d="M128.38 452.655C128.435 447.688 127.261 443.268 125.815 440.239C124.369 437.211 122.677 435.492 121.668 435.655C120.713 435.819 119.648 437.893 118.775 440.949C117.929 444.032 117.22 448.043 117.165 452.464C117.111 456.884 117.766 460.95 118.557 464.033C119.348 467.116 120.358 469.272 121.122 469.354C122.022 469.517 123.741 467.908 125.324 464.933C126.961 461.986 128.353 457.621 128.38 452.655Z" fill="#6039A4"/>
<path d="M132.773 470.363C135.065 465.343 135.802 460.295 135.72 456.556C135.556 452.818 134.601 450.472 133.646 450.253C132.691 450.035 130.918 451.809 128.899 454.619C126.879 457.457 124.642 461.277 122.595 465.725C120.576 470.145 119.239 474.429 118.475 477.84C117.684 481.251 117.52 483.761 118.093 484.197C118.775 484.743 121.231 483.925 124.178 481.578C127.07 479.286 130.427 475.439 132.773 470.363Z" fill="#BA93FE"/>
<path d="M118.202 383.811C118.421 375.762 117.466 368.504 116.129 363.319C114.846 358.08 113.236 354.997 112.227 355.052C111.272 355.106 110.044 358.353 109.034 363.538C108.025 368.722 107.179 375.762 106.96 383.538C106.742 391.315 107.342 398.409 108.079 403.648C108.87 408.887 109.88 412.189 110.644 412.298C111.544 412.407 113.318 409.351 114.901 404.249C116.565 399.064 117.984 391.861 118.202 383.811Z" fill="#BA93FE"/>
<path d="M158.941 526.273C158.832 527.228 140.905 528.047 118.775 528.047C96.7008 528.047 78.7191 527.255 78.61 526.273C78.61 526.382 78.61 526.546 78.61 526.655L85.377 598.281L86.4957 610.287C86.5503 612.416 100.957 614.135 118.721 614.135C136.539 614.135 150.946 612.416 150.946 610.287L151.164 607.777C151.164 607.722 151.164 607.668 151.164 607.613L151.71 602.074L158.859 526.655C158.941 526.546 158.941 526.382 158.941 526.273Z" fill="#EB8400"/>
<path d="M149.773 526.218C149.773 526.955 136.32 527.555 119.758 527.555C103.195 527.555 89.7428 526.955 89.7428 526.218H78.7464C78.7464 526.218 78.7464 526.218 78.7464 526.273C78.8555 527.228 96.7826 528.046 118.912 528.046C140.986 528.046 158.968 527.255 159.077 526.273C159.077 526.273 159.077 526.273 159.077 526.218H149.773Z" fill="#FF9800"/>
<path d="M249.482 171.141H210.133L194.489 186.785V241.304H249.482V171.141Z" fill="#FF9800"/>
<path d="M210.133 186.785H194.489L210.133 171.141V186.785Z" fill="#FFCC80"/>
<path fill-rule="evenodd" clip-rule="evenodd" d="M241.423 199.73H210.133V198.049H241.423V199.73Z" fill="#FFCC80"/>
<circle cx="204.207" cy="198.545" r="2.60744" fill="#FFCC80"/>
<path fill-rule="evenodd" clip-rule="evenodd" d="M241.423 209.211H210.133V207.531H241.423V209.211Z" fill="#FFCC80"/>
<circle cx="204.207" cy="208.026" r="2.60744" fill="#FFCC80"/>
<path fill-rule="evenodd" clip-rule="evenodd" d="M241.423 218.693H210.133V217.012H241.423V218.693Z" fill="#FFCC80"/>
<circle cx="204.207" cy="217.508" r="2.60744" fill="#FFCC80"/>
<path fill-rule="evenodd" clip-rule="evenodd" d="M241.423 228.174H210.133V226.494H241.423V228.174Z" fill="#FFCC80"/>
<circle cx="204.207" cy="226.989" r="2.60744" fill="#FFCC80"/>
<path d="M218.183 16.0183H162.869L140.877 38.0106V114.65H218.183V16.0183Z" fill="#FF9800"/>
<path d="M162.869 38.0106H140.877L162.869 16.0183V38.0106Z" fill="#FFCC80"/>
<path fill-rule="evenodd" clip-rule="evenodd" d="M206.84 96.1642L151.801 96.1642L151.801 94.4836L206.84 94.4836L206.84 96.1642Z" fill="#FFCC80"/>
<rect x="161.464" y="62.973" width="9.24314" height="28.9898" fill="#FFCC80"/>
<rect x="174.909" y="46.1672" width="9.24314" height="45.7955" fill="#FFCC80"/>
<rect x="188.353" y="68.4348" width="9.24314" height="23.528" fill="#FFCC80"/>
<path fill-rule="evenodd" clip-rule="evenodd" d="M169.067 4.48648C169.241 4.5325 169.415 4.57889 169.589 4.62564C169.971 4.72795 170.197 5.12039 170.095 5.50218C169.993 5.88398 169.601 6.11056 169.22 6.00825C169.047 5.96199 168.875 5.91608 168.702 5.87053C168.321 5.76974 168.093 5.37819 168.194 4.99599C168.294 4.6138 168.685 4.38568 169.067 4.48648ZM167.151 4.73091C167.058 5.1149 166.671 5.35017 166.288 5.2564C165.943 5.17202 165.597 5.08908 165.252 5.00756C164.868 4.91682 164.63 4.53139 164.721 4.14668C164.812 3.76197 165.196 3.52366 165.58 3.61441C165.929 3.69678 166.278 3.78061 166.627 3.86588C167.01 3.95964 167.245 4.34693 167.151 4.73091ZM163.686 3.91227C163.603 4.29858 163.222 4.54392 162.837 4.46026C162.489 4.38481 162.141 4.31081 161.793 4.23825C161.407 4.15765 161.159 3.77862 161.239 3.39166C161.32 3.0047 161.698 2.75635 162.085 2.83695C162.436 2.91028 162.788 2.98506 163.139 3.06131C163.525 3.14497 163.77 3.52596 163.686 3.91227ZM160.186 3.18215C160.113 3.57054 159.739 3.82587 159.351 3.75245C159.002 3.68642 158.654 3.62182 158.305 3.55866C157.917 3.48833 157.659 3.116 157.729 2.72704C157.799 2.33809 158.171 2.07979 158.559 2.15012C158.912 2.21395 159.264 2.27924 159.617 2.34598C160.005 2.41939 160.259 2.79376 160.186 3.18215ZM156.683 2.54769C156.62 2.93788 156.253 3.20303 155.864 3.1399C155.512 3.08288 155.16 3.02731 154.808 2.97319C154.418 2.9132 154.15 2.54785 154.21 2.15716C154.27 1.76648 154.635 1.4984 155.025 1.5584C155.381 1.61309 155.736 1.66926 156.092 1.72689C156.482 1.79001 156.746 2.15749 156.683 2.54769ZM153.149 2.00411C153.097 2.39584 152.737 2.67069 152.346 2.61799C151.994 2.57062 151.642 2.52468 151.291 2.48019C150.899 2.43062 150.622 2.07254 150.672 1.6804C150.721 1.28825 151.079 1.01053 151.47 1.0601C151.825 1.10508 152.181 1.1515 152.536 1.19939C152.927 1.25208 153.202 1.61237 153.149 2.00411ZM149.615 1.55666C149.573 1.94967 149.221 2.23401 148.828 2.19176C148.474 2.15364 148.12 2.11696 147.766 2.08174C147.373 2.04265 147.087 1.69211 147.126 1.29878C147.165 0.905452 147.515 0.618281 147.907 0.657369C148.265 0.692974 148.623 0.730043 148.981 0.768578C149.373 0.810824 149.657 1.16366 149.615 1.55666ZM146.06 1.20277C146.028 1.59676 145.683 1.89045 145.29 1.85874C144.937 1.83025 144.583 1.8032 144.23 1.77757C143.836 1.74903 143.54 1.4063 143.569 1.01206C143.597 0.617829 143.939 0.321383 144.333 0.34993C144.69 0.375828 145.047 0.403175 145.405 0.431972C145.798 0.463684 146.091 0.808781 146.06 1.20277ZM142.505 0.944917C142.484 1.33962 142.147 1.64243 141.753 1.62128C141.397 1.6022 141.042 1.58457 140.687 1.56839C140.293 1.55042 139.988 1.21575 140.006 0.820893C140.024 0.426038 140.358 0.120513 140.752 0.138486C141.111 0.154847 141.47 0.172666 141.829 0.191945C142.223 0.213102 142.526 0.550219 142.505 0.944917ZM138.938 0.782258C138.927 1.17738 138.599 1.48914 138.204 1.47859C137.85 1.46911 137.496 1.46106 137.142 1.45444C136.747 1.44706 136.433 1.12071 136.44 0.725515C136.448 0.330321 136.774 0.0159288 137.168 0.0233057C137.526 0.0299971 137.884 0.0381299 138.242 0.0477125C138.637 0.0582664 138.948 0.387134 138.938 0.782258ZM135.372 0.715598C135.372 1.11086 135.052 1.43133 134.657 1.43138C134.302 1.43143 133.947 1.43291 133.591 1.43583C133.197 1.43907 132.874 1.12128 132.871 0.726033C132.868 0.330778 133.185 0.00773758 133.58 0.00449619C133.939 0.00154678 134.298 4.80666e-05 134.657 6.33942e-09C135.052 -5.20362e-05 135.372 0.320333 135.372 0.715598ZM131.803 0.744849C131.814 1.13997 131.503 1.46893 131.108 1.4796C130.754 1.48918 130.4 1.50018 130.046 1.51261C129.652 1.52645 129.321 1.21745 129.307 0.822425C129.293 0.427405 129.602 0.0959473 129.996 0.0821005C130.354 0.0695422 130.712 0.058421 131.07 0.0487364C131.464 0.0380678 131.793 0.349725 131.803 0.744849ZM128.238 0.87006C128.259 1.26475 127.957 1.60196 127.563 1.62324C127.208 1.6424 126.853 1.66298 126.499 1.68498C126.105 1.70944 125.766 1.40946 125.742 1.01495C125.717 0.620444 126.017 0.280803 126.411 0.256342C126.769 0.234101 127.127 0.213297 127.486 0.193933C127.88 0.172656 128.216 0.475365 128.238 0.87006ZM124.677 1.09108C124.709 1.48506 124.416 1.83028 124.023 1.86215C123.67 1.89075 123.317 1.92077 122.964 1.9522C122.571 1.98723 122.224 1.69647 122.189 1.30276C122.154 0.909053 122.444 0.561486 122.837 0.526452C123.194 0.494686 123.551 0.464342 123.908 0.435423C124.301 0.403555 124.646 0.697103 124.677 1.09108ZM121.122 1.40795C121.165 1.80094 120.881 2.15391 120.489 2.19635C120.136 2.23453 119.783 2.27412 119.43 2.31511C119.038 2.36071 118.684 2.07939 118.638 1.68677C118.593 1.29414 118.873 0.938887 119.266 0.893288C119.622 0.851848 119.978 0.811829 120.335 0.773235C120.728 0.7308 121.08 1.01497 121.122 1.40795ZM117.58 1.81988C117.633 2.21158 117.359 2.57204 116.968 2.625C116.616 2.67263 116.265 2.72165 115.914 2.77208C115.523 2.82818 115.161 2.55648 115.105 2.16522C115.049 1.77395 115.32 1.41129 115.711 1.35519C116.066 1.30422 116.421 1.25466 116.776 1.20652C117.168 1.15357 117.528 1.42817 117.58 1.81988ZM114.047 2.32738C114.11 2.71752 113.845 3.08522 113.456 3.14866C113.106 3.20572 112.755 3.26417 112.406 3.32401C112.017 3.39058 111.648 3.1287 111.581 2.73908C111.515 2.34946 111.776 1.97964 112.165 1.91307C112.519 1.85259 112.872 1.79351 113.226 1.73584C113.616 1.6724 113.983 1.93724 114.047 2.32738ZM110.532 2.9287C110.606 3.317 110.351 3.69166 109.964 3.76551C109.615 3.83203 109.266 3.89994 108.917 3.96923C108.53 4.0462 108.154 3.79431 108.077 3.40661C108 3.01891 108.252 2.64222 108.639 2.56525C108.991 2.49521 109.344 2.42657 109.697 2.35934C110.084 2.28548 110.459 2.54039 110.532 2.9287ZM107.03 3.62504C107.114 4.01123 106.87 4.39257 106.484 4.47679C106.137 4.55251 105.791 4.6296 105.445 4.70806C105.06 4.79538 104.678 4.55365 104.59 4.16814C104.503 3.78264 104.745 3.39935 105.13 3.31204C105.479 3.23273 105.829 3.15481 106.18 3.07828C106.565 2.99406 106.946 3.23885 107.03 3.62504ZM103.552 4.41401C103.646 4.79781 103.412 5.18555 103.029 5.28005C102.684 5.36512 102.339 5.45155 101.995 5.53935C101.613 5.63692 101.224 5.40551 101.126 5.02248C101.029 4.63944 101.26 4.24983 101.642 4.15226C101.99 4.06352 102.338 3.97616 102.687 3.89018C103.07 3.79568 103.457 4.0302 103.552 4.41401ZM100.093 5.29636C100.198 5.67751 99.9738 6.07137 99.5933 6.17608C99.2512 6.2702 98.9095 6.36567 98.5683 6.46249C98.1886 6.57024 97.7936 6.3493 97.686 5.96901C97.5784 5.58871 97.799 5.19307 98.1787 5.08532C98.5236 4.98746 98.8689 4.89096 99.2147 4.79583C99.5952 4.69112 99.9885 4.91522 100.093 5.29636ZM96.6607 6.27031C96.7754 6.64853 96.5622 7.04822 96.1845 7.16305C95.8447 7.26636 95.5054 7.37103 95.1665 7.47702C94.7898 7.59487 94.3891 7.38454 94.2714 7.00725C94.1537 6.62996 94.3637 6.22858 94.7404 6.11073C95.0829 6.0036 95.4259 5.89782 95.7693 5.79339C96.147 5.67857 96.5461 5.89209 96.6607 6.27031ZM93.2548 7.33568C93.3795 7.71071 93.177 8.11594 92.8025 8.24079C92.466 8.35301 92.1299 8.46655 91.7943 8.58141C91.4209 8.70925 91.0147 8.50967 90.887 8.13565C90.7594 7.76163 90.9586 7.35479 91.3321 7.22696C91.6713 7.11086 92.0109 6.99611 92.3511 6.88269C92.7256 6.75784 93.1302 6.96065 93.2548 7.33568ZM89.8785 8.49138C90.0131 8.86296 89.8214 9.27344 89.4504 9.40821C89.1167 9.52945 88.7835 9.652 88.4508 9.77585C88.0809 9.91359 87.6695 9.72489 87.532 9.3544C87.3944 8.98391 87.5828 8.57191 87.9528 8.43418C88.289 8.309 88.6258 8.18514 88.9631 8.06261C89.3341 7.92784 89.744 8.1198 89.8785 8.49138ZM86.5346 9.73635C86.6789 10.1042 86.4982 10.5197 86.1309 10.6642C85.8006 10.7942 85.471 10.9255 85.1418 11.0581C84.7757 11.2056 84.3595 11.028 84.2122 10.6612C84.0649 10.2945 84.2423 9.87768 84.6085 9.73016C84.9411 9.59615 85.2743 9.46345 85.6081 9.33207C85.9754 9.18748 86.3902 9.36848 86.5346 9.73635ZM83.2239 11.0701C83.378 11.434 83.2083 11.8541 82.845 12.0084C82.5182 12.1472 82.192 12.2872 81.8664 12.4286C81.5043 12.5857 81.0835 12.4192 80.9265 12.0565C80.7696 11.6938 80.9359 11.2724 81.298 11.1152C81.6271 10.9724 81.9568 10.8308 82.2871 10.6906C82.6504 10.5363 83.0699 10.7062 83.2239 11.0701ZM79.9508 12.4909C80.1144 12.8506 79.9559 13.275 79.5968 13.4389C79.2737 13.5863 78.9513 13.735 78.6295 13.885C78.2716 14.0517 77.8466 13.8964 77.6801 13.538C77.5136 13.1796 77.6687 12.7539 78.0266 12.5872C78.3518 12.4356 78.6777 12.2853 79.0042 12.1363C79.3634 11.9724 79.7872 12.1312 79.9508 12.4909ZM76.7153 13.9985C76.8884 14.3537 76.7412 14.7822 76.3865 14.9556C76.0676 15.1115 75.7493 15.2686 75.4316 15.427C75.0783 15.6032 74.6493 15.4592 74.4734 15.1053C74.2975 14.7515 74.4413 14.3219 74.7946 14.1457C75.1156 13.9856 75.4373 13.8268 75.7597 13.6692C76.1144 13.4958 76.5422 13.6433 76.7153 13.9985ZM73.5216 15.591C73.704 15.9415 73.5682 16.3738 73.2182 16.5565C72.9034 16.7208 72.5894 16.8864 72.2759 17.0532C71.9274 17.2386 71.4947 17.1061 71.3095 16.757C71.1243 16.408 71.2567 15.9746 71.6053 15.7892C71.922 15.6206 72.2395 15.4533 72.5576 15.2872C72.9076 15.1045 73.3392 15.2405 73.5216 15.591ZM70.3707 17.2679C70.5623 17.6134 70.4379 18.0491 70.0929 18.2411C69.7826 18.4136 69.473 18.5874 69.1642 18.7625C68.8207 18.9571 68.3846 18.836 68.1903 18.492C67.9959 18.148 68.1168 17.7113 68.4603 17.5167C68.7725 17.3398 69.0854 17.1641 69.399 16.9897C69.744 16.7978 70.179 16.9223 70.3707 17.2679ZM67.2654 19.0275C67.466 19.3679 67.3532 19.8067 67.0134 20.0077C66.7078 20.1884 66.4029 20.3704 66.0988 20.5535C65.7605 20.7572 65.3215 20.6477 65.1181 20.309C64.9147 19.9702 65.0241 19.5305 65.3623 19.3268C65.6697 19.1417 65.9778 18.9578 66.2867 18.7752C66.6265 18.5742 67.0647 18.6872 67.2654 19.0275ZM64.2075 20.8689C64.4171 21.2038 64.3159 21.6455 63.9815 21.8554C63.6808 22.0442 63.3808 22.2342 63.0815 22.4254C62.7488 22.638 62.307 22.5402 62.0947 22.2069C61.8825 21.8737 61.9801 21.4312 62.3129 21.2186C62.6153 21.0254 62.9185 20.8334 63.2225 20.6426C63.5569 20.4327 63.9979 20.534 64.2075 20.8689ZM61.1996 22.7906C61.4179 23.1198 61.3285 23.564 60.9997 23.7827C60.7041 23.9794 60.4093 24.1772 60.1152 24.3762C59.7882 24.5976 59.344 24.5115 59.123 24.184C58.902 23.8565 58.988 23.4116 59.315 23.1903C59.6122 22.9891 59.9101 22.7892 60.2089 22.5904C60.5376 22.3717 60.9812 22.4613 61.1996 22.7906ZM58.2431 24.7915C58.4701 25.1149 58.3924 25.5613 58.0695 25.7886C57.7792 25.9931 57.4896 26.1988 57.2008 26.4056C56.8798 26.6355 56.4334 26.5612 56.2039 26.2397C55.9743 25.9182 56.0484 25.4711 56.3695 25.2412C56.6613 25.0322 56.954 24.8244 57.2475 24.6177C57.5703 24.3904 58.016 24.4682 58.2431 24.7915ZM55.3411 26.8697C55.5766 27.1869 55.5107 27.6353 55.194 27.8711C54.9092 28.0832 54.6252 28.2964 54.3421 28.5107C54.0272 28.7491 53.5791 28.6867 53.3411 28.3714C53.1031 28.056 53.1654 27.6072 53.4802 27.3689C53.7664 27.1522 54.0534 26.9367 54.3413 26.7224C54.658 26.4866 55.1056 26.5525 55.3411 26.8697ZM52.4941 29.025C52.7379 29.3359 52.6839 29.7858 52.3735 30.0299C52.0946 30.2494 51.8164 30.47 51.5392 30.6917C51.2308 30.9383 50.7811 30.8878 50.5349 30.5789C50.2886 30.27 50.339 29.8197 50.6474 29.5731C50.9277 29.349 51.2087 29.1261 51.4907 28.9043C51.8011 28.6601 52.2503 28.7142 52.4941 29.025ZM49.7066 31.2539C49.9585 31.5582 49.9165 32.0094 49.6127 32.2617C49.3395 32.4886 49.0671 32.7166 48.7957 32.9458C48.4939 33.2005 48.0431 33.162 47.7887 32.8598C47.5344 32.5575 47.5728 32.106 47.8746 31.8513C48.149 31.6197 48.4242 31.3892 48.7004 31.1599C49.0042 30.9076 49.4547 30.9497 49.7066 31.2539ZM46.9776 33.5574C47.2375 33.8549 47.2075 34.307 46.9105 34.5673C46.6436 34.8012 46.3777 35.0362 46.1126 35.2723C45.8177 35.535 45.366 35.5084 45.1037 35.2131C44.8414 34.9177 44.8679 34.4653 45.1628 34.2027C45.4307 33.9641 45.6995 33.7266 45.9693 33.4902C46.2663 33.2299 46.7177 33.26 46.9776 33.5574ZM44.3122 35.9314C44.5799 36.2218 44.5618 36.6746 44.2718 36.9427C44.011 37.1839 43.751 37.4262 43.492 37.6695C43.2042 37.9399 42.752 37.9254 42.4819 37.6372C42.2119 37.3489 42.2264 36.896 42.5142 36.6255C42.776 36.3796 43.0387 36.1347 43.3023 35.891C43.5923 35.6229 44.0444 35.641 44.3122 35.9314ZM41.7096 38.3765C41.9849 38.6597 41.9789 39.1128 41.6961 39.3885C41.442 39.6363 41.1889 39.8851 40.9367 40.135C40.6562 40.413 40.2037 40.4106 39.9261 40.1296C39.6485 39.8487 39.651 39.3955 39.9315 39.1175C40.1864 38.8649 40.4422 38.6134 40.699 38.363C40.9818 38.0873 41.4342 38.0933 41.7096 38.3765ZM39.1734 40.8895C39.4562 41.1653 39.4622 41.6184 39.1869 41.9016C38.9392 42.1564 38.6924 42.4123 38.4466 42.6692C38.1735 42.9546 37.7212 42.9642 37.4362 42.6908C37.1512 42.4173 37.1416 41.9643 37.4146 41.6789C37.6631 41.4192 37.9125 41.1606 38.1629 40.903C38.4383 40.6198 38.8907 40.6138 39.1734 40.8895ZM36.705 43.4694C36.995 43.7375 37.0131 44.1903 36.7454 44.4807C36.5049 44.7417 36.2653 45.0038 36.0267 45.2668C35.7614 45.5594 35.3094 45.5812 35.0173 45.3154C34.7251 45.0496 34.7034 44.597 34.9688 44.3044C35.2099 44.0385 35.4521 43.7737 35.6952 43.5099C35.9629 43.2194 36.415 43.2013 36.705 43.4694ZM34.3056 46.115C34.6026 46.3753 34.6328 46.8274 34.3729 47.1249C34.139 47.3927 33.9061 47.6616 33.6742 47.9314C33.4167 48.231 32.9655 48.2648 32.6664 48.007C32.3673 47.7491 32.3335 47.2972 32.5909 46.9977C32.8253 46.7249 33.0608 46.4532 33.2972 46.1825C33.557 45.885 34.0085 45.8548 34.3056 46.115ZM31.9788 48.8224C32.2827 49.0746 32.3249 49.5257 32.0731 49.8301C31.8467 50.1036 31.6214 50.3782 31.3971 50.6537C31.1478 50.9601 30.6976 51.006 30.3917 50.7562C30.0858 50.5065 30.04 50.0557 30.2894 49.7493C30.5161 49.4708 30.7438 49.1933 30.9726 48.9168C31.2244 48.6124 31.6749 48.5702 31.9788 48.8224ZM29.723 51.5937C30.0335 51.8377 30.0877 52.2876 29.8441 52.5986C29.6252 52.878 29.4074 53.1585 29.1906 53.4399C28.9495 53.7528 28.5007 53.8108 28.1883 53.5693C27.8758 53.3279 27.8179 52.8784 28.059 52.5655C28.2782 52.281 28.4984 51.9976 28.7196 51.7151C28.9632 51.4041 29.4124 51.3498 29.723 51.5937ZM27.5449 54.4207C27.8619 54.6563 27.9281 55.1045 27.6929 55.4219C27.4814 55.7073 27.271 55.9937 27.0617 56.281C26.8291 56.6002 26.382 56.6702 26.0632 56.4372C25.7444 56.2042 25.6746 55.7565 25.9072 55.4372C26.1188 55.1468 26.3315 54.8574 26.5452 54.5689C26.7804 54.2515 27.228 54.1851 27.5449 54.4207ZM25.4397 57.3101C25.7628 57.5371 25.841 57.9834 25.6144 58.307C25.4111 58.5973 25.2089 58.8885 25.0078 59.1806C24.7838 59.5061 24.3388 59.588 24.0139 59.3636C23.6889 59.1393 23.6071 58.6936 23.8311 58.3682C24.0344 58.0729 24.2388 57.7785 24.4443 57.4851C24.6709 57.1615 25.1165 57.0831 25.4397 57.3101ZM23.4166 60.2489C23.7457 60.4671 23.8358 60.9112 23.6179 61.2407C23.4219 61.5372 23.2271 61.8346 23.0333 62.1329C22.8181 62.4642 22.3754 62.558 22.0446 62.3425C21.7138 62.1269 21.6201 61.6836 21.8353 61.3523C22.0312 61.0508 22.2281 60.7502 22.4263 60.4505C22.6441 60.121 23.0875 60.0307 23.4166 60.2489ZM21.4694 63.2463C21.8042 63.4556 21.9062 63.8971 21.6972 64.2324C21.5098 64.5332 21.3234 64.8349 21.1382 65.1375C20.9319 65.4745 20.4919 65.5802 20.1555 65.3736C19.819 65.167 19.7135 64.7264 19.9197 64.3894C20.107 64.0835 20.2953 63.7786 20.4848 63.4745C20.6938 63.1392 21.1346 63.0371 21.4694 63.2463ZM19.6059 66.2905C19.9462 66.4907 20.06 66.9293 19.8601 67.2701C19.6801 67.5768 19.5013 67.8844 19.3237 68.1929C19.1265 68.5353 18.6895 68.6528 18.3476 68.4553C18.0057 68.2578 17.8884 67.8202 18.0856 67.4778C18.2652 67.166 18.4459 66.855 18.6278 66.545C18.8277 66.2042 19.2657 66.0903 19.6059 66.2905ZM17.8225 69.3871C18.1681 69.5781 18.2935 70.0135 18.1028 70.3596C17.9317 70.67 17.7617 70.9814 17.5928 71.2936C17.4049 71.6411 16.9712 71.7703 16.6241 71.582C16.2771 71.3938 16.1481 70.9594 16.3361 70.6119C16.5068 70.2963 16.6786 69.9816 16.8516 69.6678C17.0423 69.3217 17.477 69.1961 17.8225 69.3871ZM16.1239 72.5282C16.4744 72.7099 16.6114 73.1417 16.43 73.4927C16.2666 73.8089 16.1044 74.1259 15.9434 74.4437C15.7648 74.7962 15.3347 74.9369 14.9827 74.758C14.6308 74.5792 14.4903 74.1484 14.6689 73.7959C14.8316 73.4747 14.9956 73.1543 15.1608 72.8348C15.3422 72.4837 15.7734 72.3465 16.1239 72.5282ZM14.5092 75.7147C14.8644 75.8869 15.013 76.315 14.841 76.6707C14.6866 76.99 14.5335 77.3101 14.3815 77.631C14.2124 77.9881 13.7862 78.1403 13.4296 77.9709C13.073 77.8015 12.921 77.3747 13.0902 77.0176C13.2438 76.6932 13.3986 76.3697 13.5546 76.047C13.7266 75.6912 14.154 75.5424 14.5092 75.7147ZM12.9799 78.9438C13.3396 79.1065 13.4995 79.5304 13.3371 79.8906C13.1907 80.2153 13.0455 80.5408 12.9015 80.8671C12.7419 81.2286 12.32 81.3921 11.959 81.2323C11.598 81.0725 11.4347 80.6499 11.5942 80.2884C11.7398 79.9586 11.8866 79.6296 12.0345 79.3015C12.197 78.9412 12.6202 78.7811 12.9799 78.9438ZM11.5381 82.2105C11.902 82.3636 12.0731 82.7831 11.9203 83.1475C11.7831 83.4747 11.6472 83.8026 11.5124 84.1313C11.3625 84.497 10.945 84.6717 10.5799 84.5216C10.2148 84.3714 10.0404 83.9533 10.1903 83.5877C10.3265 83.2554 10.4639 82.924 10.6026 82.5933C10.7554 82.2289 11.1742 82.0575 11.5381 82.2105ZM10.182 85.5185C10.5498 85.6618 10.732 86.0766 10.5889 86.4449C10.4599 86.7772 10.332 87.1103 10.2054 87.4441C10.0653 87.8136 9.65261 87.9994 9.28366 87.8591C8.91471 87.7187 8.72922 87.3054 8.86936 86.9359C8.99731 86.5985 9.12651 86.2619 9.25695 85.926C9.40003 85.5577 9.8142 85.3752 10.182 85.5185ZM8.91623 88.8556C9.2877 88.9891 9.48078 89.3989 9.34748 89.7709C9.22778 90.105 9.10929 90.4399 8.99205 90.7754C8.86169 91.1485 8.45404 91.3451 8.08152 91.2146C7.709 91.084 7.51268 90.6758 7.64303 90.3027C7.76153 89.9635 7.88127 89.6251 8.00225 89.2875C8.13555 88.9154 8.54475 88.7221 8.91623 88.8556ZM7.7363 92.2328C8.11117 92.3564 8.31498 92.761 8.19154 93.1364C8.08042 93.4744 7.97054 93.8131 7.86191 94.1524C7.74143 94.5289 7.3391 94.7362 6.96327 94.6155C6.58743 94.4949 6.38043 94.0919 6.5009 93.7155C6.61069 93.3725 6.72173 93.0303 6.83403 92.6887C6.95748 92.3133 7.36143 92.1091 7.7363 92.2328ZM6.64871 95.6302C7.02668 95.7439 7.24102 96.143 7.12745 96.5216C7.02542 96.8616 6.92463 97.2024 6.8251 97.5438C6.71449 97.9233 6.31771 98.1411 5.93886 98.0303C5.56 97.9195 5.34254 97.5221 5.45315 97.1427C5.55373 96.7977 5.65558 96.4533 5.75868 96.1097C5.87226 95.7311 6.27074 95.5164 6.64871 95.6302ZM5.64699 99.0668C6.0278 99.1706 6.2525 99.5639 6.14885 99.9453C6.10201 100.118 6.05548 100.29 6.00927 100.463C5.96307 100.636 5.91723 100.808 5.87175 100.981C5.7711 101.363 5.38015 101.591 4.99853 101.491C4.61691 101.39 4.38914 100.998 4.48979 100.616C4.53575 100.442 4.58207 100.267 4.62875 100.093C4.67544 99.918 4.72246 99.7436 4.7698 99.5694C4.87344 99.188 5.26617 98.963 5.64699 99.0668ZM4.73382 102.534C5.11722 102.628 5.35211 103.015 5.25847 103.399C5.1742 103.745 5.09135 104.091 5.00994 104.436C4.91931 104.821 4.53445 105.059 4.15033 104.968C3.7662 104.878 3.52828 104.492 3.61891 104.107C3.70119 103.758 3.7849 103.409 3.87006 103.06C3.96371 102.676 4.35042 102.441 4.73382 102.534ZM3.91617 106.005C4.30189 106.088 4.54682 106.469 4.46324 106.856C4.38787 107.204 4.31395 107.552 4.24145 107.901C4.16092 108.288 3.78243 108.536 3.39607 108.455C3.0097 108.375 2.76177 107.996 2.8423 107.609C2.91556 107.257 2.99027 106.905 3.06644 106.553C3.15002 106.166 3.53046 105.921 3.91617 106.005ZM3.18671 109.51C3.5745 109.583 3.82938 109.958 3.75601 110.346C3.69002 110.695 3.62546 111.045 3.56232 111.394C3.49202 111.783 3.12021 112.041 2.73186 111.971C2.3435 111.9 2.08566 111.528 2.15596 111.139C2.21976 110.786 2.28501 110.433 2.35171 110.08C2.42508 109.692 2.79892 109.436 3.18671 109.51ZM2.55257 113.018C2.94215 113.081 3.20682 113.449 3.1437 113.839C3.08668 114.191 3.03111 114.544 2.97699 114.896C2.91699 115.287 2.55212 115.555 2.16204 115.495C1.77196 115.435 1.50438 115.069 1.56438 114.679C1.61908 114.322 1.67525 113.966 1.73288 113.61C1.79599 113.22 2.16298 112.955 2.55257 113.018ZM2.00893 116.557C2.40006 116.61 2.67438 116.97 2.62165 117.362C2.57425 117.714 2.52828 118.066 2.48374 118.418C2.43413 118.811 2.07651 119.088 1.68497 119.039C1.29343 118.989 1.01625 118.631 1.06586 118.239C1.11087 117.883 1.15734 117.527 1.20525 117.171C1.25798 116.779 1.6178 116.504 2.00893 116.557ZM1.5611 120.096C1.95349 120.139 2.23728 120.492 2.19496 120.885C2.15677 121.239 2.12002 121.594 2.08472 121.948C2.04555 122.342 1.69544 122.629 1.30272 122.59C0.909998 122.55 0.623387 122.2 0.662558 121.806C0.698239 121.448 0.735381 121.09 0.773981 120.731C0.816302 120.338 1.1687 120.054 1.5611 120.096ZM1.20644 123.657C1.59982 123.689 1.89293 124.034 1.86111 124.428C1.83252 124.782 1.80536 125.136 1.77963 125.49C1.75096 125.884 1.40862 126.181 1.015 126.152C0.62137 126.123 0.325515 125.78 0.354186 125.386C0.380193 125.028 0.407643 124.671 0.436545 124.313C0.468365 123.919 0.813059 123.625 1.20644 123.657ZM0.947491 127.217C1.34158 127.239 1.64379 127.576 1.62248 127.971C1.60327 128.327 1.58551 128.682 1.56918 129.038C1.55104 129.433 1.21674 129.738 0.822487 129.72C0.428235 129.702 0.123332 129.367 0.141466 128.972C0.157974 128.613 0.175931 128.253 0.19535 127.893C0.216654 127.499 0.553399 127.196 0.947491 127.217ZM0.783378 130.79C1.1779 130.801 1.48902 131.13 1.47828 131.525C1.46863 131.88 1.46041 132.234 1.45361 132.589C1.44604 132.984 1.12001 133.298 0.72542 133.291C0.330825 133.283 0.0170846 132.957 0.0246578 132.562C0.0315282 132.203 0.0398375 131.845 0.0495869 131.486C0.0603292 131.091 0.388856 130.779 0.783378 130.79ZM0.714935 134.361C1.1096 134.361 1.4294 134.682 1.42923 135.077C1.42908 135.433 1.43035 135.789 1.43306 136.145C1.43607 136.54 1.11857 136.863 0.723913 136.866C0.329256 136.869 0.00688618 136.551 0.00388057 136.155C0.00114543 135.796 -0.000143842 135.436 1.27141e-05 135.076C0.000183866 134.681 0.320265 134.361 0.714935 134.361ZM0.74206 137.935C1.13659 137.925 1.46486 138.236 1.47527 138.632C1.48462 138.986 1.49538 139.341 1.50756 139.695C1.52114 140.09 1.21239 140.422 0.817959 140.435C0.423525 140.449 0.0927662 140.14 0.0791912 139.745C0.0668781 139.386 0.055997 139.028 0.0465484 138.669C0.036139 138.274 0.347529 137.945 0.74206 137.935ZM0.864819 141.506C1.25893 141.485 1.59543 141.788 1.61641 142.183C1.6353 142.538 1.65562 142.893 1.67734 143.248C1.7015 143.642 1.40174 143.982 1.00781 144.006C0.613881 144.03 0.274957 143.73 0.250801 143.336C0.22884 142.977 0.208309 142.618 0.189214 142.259C0.168232 141.864 0.47071 141.527 0.864819 141.506ZM1.08308 145.072C1.47649 145.04 1.82097 145.334 1.85251 145.728C1.88082 146.082 1.91054 146.435 1.94167 146.788C1.97636 147.182 1.68578 147.53 1.29264 147.564C0.899503 147.599 0.552674 147.308 0.517981 146.914C0.486523 146.557 0.456482 146.2 0.427865 145.842C0.396324 145.448 0.689676 145.103 1.08308 145.072ZM1.39687 148.632C1.78929 148.59 2.14152 148.875 2.18359 149.268C2.22145 149.621 2.26071 149.975 2.30137 150.328C2.3466 150.72 2.06543 151.075 1.67336 151.121C1.28129 151.166 0.926794 150.884 0.88157 150.492C0.840467 150.135 0.800778 149.778 0.762512 149.42C0.720441 149.027 1.00445 148.675 1.39687 148.632ZM1.80543 152.18C2.19659 152.128 2.55629 152.403 2.60885 152.794C2.65611 153.147 2.70477 153.499 2.75483 153.85C2.81053 154.241 2.53895 154.604 2.14823 154.66C1.75751 154.715 1.39562 154.443 1.33991 154.052C1.28932 153.697 1.24013 153.341 1.19236 152.985C1.1398 152.593 1.41428 152.233 1.80543 152.18ZM2.30928 155.72C2.69888 155.657 3.0658 155.922 3.12882 156.312C3.18549 156.663 3.24356 157.014 3.303 157.364C3.36914 157.754 3.10734 158.123 2.71826 158.189C2.32916 158.256 1.96013 157.993 1.894 157.604C1.8339 157.25 1.77522 156.895 1.71794 156.541C1.65492 156.15 1.91967 155.783 2.30928 155.72ZM2.90665 159.24C3.29443 159.166 3.66829 159.422 3.7417 159.81C3.80781 160.16 3.8753 160.509 3.94418 160.858C4.02069 161.246 3.76884 161.623 3.38166 161.699C2.99448 161.776 2.61859 161.524 2.54207 161.136C2.47245 160.783 2.40423 160.43 2.33741 160.076C2.26401 159.688 2.51887 159.313 2.90665 159.24ZM3.59882 162.748C3.9845 162.664 4.36504 162.909 4.44878 163.296C4.52406 163.643 4.60072 163.99 4.67874 164.336C4.76557 164.722 4.52384 165.105 4.13884 165.192C3.75385 165.279 3.37136 165.037 3.28453 164.651C3.20568 164.301 3.1282 163.95 3.0521 163.599C2.96836 163.213 3.21313 162.832 3.59882 162.748ZM4.38334 166.232C4.76665 166.138 5.15358 166.373 5.24757 166.757C5.33218 167.103 5.41816 167.448 5.50549 167.793C5.60255 168.176 5.37111 168.565 4.98856 168.662C4.60602 168.759 4.21722 168.528 4.12016 168.145C4.03189 167.796 3.94499 167.447 3.85947 167.098C3.76548 166.714 4.00002 166.326 4.38334 166.232ZM5.26104 169.697C5.64171 169.593 6.03476 169.817 6.13893 170.199C6.23258 170.541 6.32757 170.884 6.4239 171.225C6.53111 171.606 6.31011 172.001 5.93029 172.109C5.55046 172.216 5.15564 171.995 5.04843 171.614C4.95106 171.269 4.85505 170.923 4.7604 170.576C4.65623 170.195 4.88037 169.802 5.26104 169.697ZM6.23009 173.136C6.60786 173.021 7.00673 173.235 7.121 173.613C7.22381 173.954 7.32798 174.294 7.43347 174.633C7.55075 175.011 7.34034 175.412 6.9635 175.529C6.58666 175.647 6.18609 175.436 6.06881 175.059C5.96219 174.716 5.85692 174.372 5.75299 174.028C5.63872 173.65 5.85233 173.25 6.23009 173.136ZM7.29039 176.548C7.66498 176.423 8.0694 176.627 8.19367 177.002C8.30536 177.339 8.41838 177.676 8.53272 178.012C8.65997 178.386 8.46027 178.793 8.08668 178.92C7.71309 179.048 7.30708 178.847 7.17983 178.473C7.06426 178.134 6.95004 177.793 6.83714 177.452C6.71288 177.077 6.9158 176.672 7.29039 176.548ZM8.44081 179.93C8.81197 179.796 9.22163 179.988 9.3558 180.36C9.4765 180.695 9.59851 181.028 9.72183 181.362C9.85896 181.732 9.67011 182.144 9.30004 182.281C8.92996 182.419 8.51878 182.23 8.38165 181.859C8.25702 181.522 8.1337 181.185 8.01172 180.847C7.87754 180.475 8.06965 180.065 8.44081 179.93ZM9.68034 183.281C10.0478 183.137 10.4624 183.318 10.6064 183.686C10.7358 184.017 10.8666 184.347 10.9986 184.677C11.1455 185.044 10.9676 185.461 10.6013 185.608C10.235 185.755 9.81895 185.577 9.67205 185.21C9.53861 184.876 9.40648 184.543 9.27567 184.208C9.1317 183.84 9.31287 183.425 9.68034 183.281ZM11.0085 186.598C11.372 186.444 11.7913 186.614 11.9449 186.978C12.0831 187.306 12.2226 187.633 12.3634 187.959C12.52 188.322 12.3532 188.743 11.9909 188.9C11.6286 189.057 11.208 188.89 11.0514 188.527C10.9092 188.197 10.7682 187.867 10.6285 187.536C10.4748 187.172 10.645 186.752 11.0085 186.598ZM12.4235 189.878C12.7828 189.714 13.2064 189.873 13.3697 190.233C13.5165 190.557 13.6646 190.88 13.814 191.202C13.9801 191.561 13.8245 191.986 13.4665 192.153C13.1085 192.319 12.6836 192.163 12.5175 191.805C12.3666 191.479 12.2169 191.152 12.0685 190.825C11.9052 190.465 12.0642 190.041 12.4235 189.878ZM13.9253 193.12C14.2801 192.947 14.7078 193.095 14.8805 193.45C15.0358 193.77 15.1924 194.089 15.3502 194.407C15.5257 194.761 15.3814 195.19 15.0279 195.366C14.6744 195.542 14.2456 195.397 14.0701 195.043C13.9106 194.722 13.7524 194.399 13.5954 194.076C13.4227 193.721 13.5704 193.293 13.9253 193.12ZM15.5118 196.32C15.862 196.138 16.2934 196.274 16.4754 196.625C16.6392 196.94 16.8041 197.255 16.9703 197.569C17.1551 197.918 17.0223 198.352 16.6735 198.537C16.3248 198.722 15.8923 198.589 15.7075 198.239C15.5395 197.922 15.3728 197.604 15.2073 197.285C15.0253 196.934 15.1616 196.502 15.5118 196.32ZM17.1826 199.478C17.5278 199.286 17.9627 199.411 18.154 199.757C18.3259 200.068 18.4991 200.378 18.6736 200.688C18.8675 201.032 18.7461 201.468 18.4024 201.663C18.0587 201.857 17.6228 201.735 17.4289 201.391C17.2526 201.078 17.0775 200.765 16.9037 200.45C16.7125 200.105 16.8374 199.669 17.1826 199.478ZM18.9361 202.589C19.2761 202.389 19.7142 202.502 19.9145 202.843C20.0946 203.149 20.2759 203.455 20.4585 203.76C20.6615 204.099 20.5516 204.538 20.2132 204.741C19.8747 204.945 19.4358 204.835 19.2328 204.496C19.0483 204.188 18.865 203.879 18.683 203.569C18.4827 203.229 18.596 202.79 18.9361 202.589ZM20.7712 205.654C21.1059 205.444 21.5468 205.546 21.756 205.881C21.9441 206.183 22.1335 206.484 22.3241 206.783C22.536 207.117 22.4378 207.559 22.1048 207.772C21.7718 207.984 21.3302 207.885 21.1183 207.552C20.9257 207.249 20.7343 206.945 20.5441 206.64C20.3349 206.305 20.4366 205.864 20.7712 205.654ZM22.6866 208.669C23.0156 208.45 23.459 208.54 23.677 208.87C23.8731 209.166 24.0703 209.462 24.2687 209.756C24.4893 210.084 24.4028 210.529 24.0756 210.75C23.7484 210.971 23.3042 210.884 23.0836 210.557C22.8831 210.259 22.6838 209.96 22.4857 209.661C22.2676 209.331 22.3576 208.887 22.6866 208.669ZM194.925 254.904C195.101 255.258 194.957 255.688 194.604 255.864C194.442 255.944 194.281 256.024 194.119 256.104C193.765 256.279 193.336 256.133 193.162 255.779C192.988 255.424 193.133 254.995 193.487 254.82C193.647 254.741 193.807 254.662 193.967 254.582C194.32 254.406 194.749 254.55 194.925 254.904ZM192.187 256.248C192.355 256.606 192.201 257.032 191.844 257.201C191.518 257.354 191.191 257.506 190.863 257.657C190.505 257.822 190.08 257.665 189.915 257.306C189.75 256.947 189.907 256.522 190.266 256.357C190.59 256.208 190.914 256.057 191.236 255.905C191.594 255.737 192.019 255.891 192.187 256.248ZM24.6812 211.632C25.0043 211.405 25.45 211.483 25.6766 211.807C25.8805 212.098 26.0855 212.388 26.2917 212.678C26.5209 212.999 26.4462 213.446 26.1249 213.676C25.8036 213.905 25.3574 213.831 25.1282 213.509C24.9198 213.216 24.7126 212.923 24.5066 212.629C24.2799 212.305 24.3581 211.859 24.6812 211.632ZM188.928 257.75C189.087 258.112 188.922 258.534 188.56 258.692C188.23 258.837 187.899 258.981 187.567 259.123C187.205 259.278 186.785 259.11 186.629 258.747C186.474 258.383 186.642 257.963 187.005 257.807C187.333 257.666 187.66 257.524 187.987 257.381C188.349 257.223 188.77 257.388 188.928 257.75ZM26.7531 214.541C27.0701 214.305 27.5176 214.372 27.7528 214.689C27.9642 214.974 28.1768 215.259 28.3905 215.543C28.6281 215.858 28.5653 216.307 28.2502 216.545C27.9351 216.783 27.487 216.72 27.2494 216.405C27.0334 216.118 26.8186 215.83 26.6049 215.542C26.3697 215.224 26.4361 214.776 26.7531 214.541ZM185.631 259.164C185.779 259.53 185.603 259.948 185.238 260.096C184.904 260.232 184.569 260.367 184.234 260.5C183.867 260.646 183.451 260.466 183.306 260.099C183.16 259.732 183.339 259.315 183.706 259.17C183.901 259.092 184.096 259.014 184.291 258.936C184.427 258.881 184.563 258.826 184.7 258.77C185.065 258.621 185.482 258.798 185.631 259.164ZM28.902 217.394C29.2126 217.15 29.6618 217.205 29.9052 217.516C30.124 217.796 30.344 218.074 30.5651 218.352C30.811 218.662 30.7601 219.112 30.4514 219.358C30.1427 219.604 29.6932 219.553 29.4472 219.244C29.2238 218.963 29.0015 218.682 28.7803 218.399C28.5369 218.088 28.5913 217.638 28.902 217.394ZM182.297 260.489C182.435 260.859 182.248 261.272 181.879 261.411C181.541 261.538 181.203 261.663 180.864 261.788C180.494 261.924 180.083 261.733 179.947 261.362C179.812 260.991 180.002 260.58 180.373 260.444C180.708 260.321 181.042 260.196 181.376 260.071C181.746 259.932 182.158 260.119 182.297 260.489ZM31.1245 220.188C31.4286 219.936 31.8791 219.979 32.1307 220.283C32.3569 220.557 32.5843 220.83 32.8128 221.102C33.0669 221.405 33.0279 221.856 32.7259 222.111C32.4238 222.365 31.973 222.326 31.719 222.024C31.4881 221.749 31.2582 221.473 31.0296 221.196C30.7779 220.891 30.8205 220.44 31.1245 220.188ZM178.928 261.725C179.057 262.099 178.859 262.506 178.486 262.635C178.145 262.753 177.804 262.87 177.462 262.985C177.088 263.111 176.683 262.909 176.557 262.535C176.431 262.16 176.632 261.754 177.006 261.628C177.345 261.514 177.682 261.399 178.02 261.282C178.393 261.153 178.799 261.351 178.928 261.725ZM33.4216 222.924C33.7189 222.664 34.1703 222.694 34.4299 222.992C34.6632 223.26 34.8976 223.526 35.133 223.792C35.395 224.088 35.368 224.54 35.0729 224.802C34.7777 225.065 34.326 225.038 34.064 224.742C33.8261 224.474 33.5892 224.204 33.3534 223.934C33.0938 223.636 33.1244 223.184 33.4216 222.924ZM175.528 262.87C175.647 263.247 175.438 263.649 175.062 263.768C174.718 263.877 174.374 263.984 174.029 264.09C173.652 264.206 173.252 263.994 173.136 263.616C173.02 263.238 173.232 262.838 173.61 262.722C173.951 262.617 174.291 262.511 174.632 262.403C175.008 262.284 175.409 262.493 175.528 262.87ZM35.7892 225.596C36.0795 225.328 36.5316 225.347 36.799 225.637C37.0395 225.899 37.2812 226.159 37.5239 226.419C37.7936 226.708 37.7787 227.16 37.4906 227.431C37.2024 227.701 36.7502 227.686 36.4805 227.397C36.2352 227.135 35.991 226.871 35.7479 226.607C35.4805 226.316 35.499 225.864 35.7892 225.596ZM172.099 263.924C172.208 264.304 171.988 264.7 171.609 264.809C171.262 264.909 170.915 265.007 170.568 265.103C170.187 265.209 169.793 264.986 169.688 264.605C169.582 264.224 169.805 263.83 170.185 263.724C170.529 263.628 170.872 263.531 171.215 263.433C171.595 263.324 171.99 263.544 172.099 263.924ZM38.228 228.205C38.5111 227.929 38.9635 227.936 39.2385 228.219C39.4857 228.474 39.7339 228.728 39.9832 228.981C40.2605 229.262 40.2576 229.715 39.9768 229.993C39.6959 230.27 39.2435 230.268 38.9662 229.986C38.7142 229.731 38.4634 229.474 38.2136 229.217C37.9385 228.933 37.945 228.48 38.228 228.205ZM168.643 264.885C168.741 265.268 168.511 265.658 168.129 265.757C167.78 265.847 167.43 265.936 167.08 266.023C166.697 266.119 166.309 265.885 166.214 265.502C166.118 265.118 166.352 264.73 166.735 264.634C167.081 264.548 167.427 264.46 167.772 264.371C168.155 264.272 168.544 264.503 168.643 264.885ZM40.7347 230.747C41.0103 230.464 41.4628 230.459 41.7453 230.735C41.9994 230.983 42.2547 231.23 42.511 231.477C42.7957 231.751 42.8049 232.204 42.5316 232.489C42.2582 232.774 41.8059 232.783 41.5212 232.509C41.2621 232.26 41.0041 232.01 40.7472 231.759C40.4647 231.483 40.4591 231.03 40.7347 230.747ZM165.162 265.754C165.25 266.139 165.01 266.523 164.625 266.611C164.273 266.692 163.921 266.771 163.569 266.849C163.184 266.934 162.802 266.69 162.717 266.304C162.632 265.918 162.876 265.536 163.261 265.451C163.61 265.374 163.958 265.296 164.306 265.216C164.69 265.128 165.074 265.368 165.162 265.754ZM43.3084 233.222C43.5763 232.932 44.0285 232.914 44.3182 233.182C44.5786 233.424 44.84 233.664 45.1024 233.903C45.3943 234.169 45.4156 234.622 45.15 234.914C44.8844 235.206 44.4324 235.228 44.1405 234.962C43.8753 234.72 43.611 234.477 43.3479 234.233C43.0581 233.965 43.0404 233.512 43.3084 233.222ZM161.659 266.528C161.736 266.915 161.486 267.293 161.099 267.371C160.746 267.442 160.392 267.512 160.038 267.58C159.65 267.655 159.275 267.401 159.201 267.013C159.126 266.624 159.38 266.249 159.767 266.174C160.118 266.107 160.468 266.038 160.817 265.967C161.204 265.889 161.581 266.14 161.659 266.528ZM45.9477 235.627C46.2079 235.33 46.6593 235.3 46.9562 235.561C47.2234 235.795 47.4916 236.029 47.7608 236.261C48.0597 236.519 48.0931 236.971 47.8353 237.271C47.5776 237.57 47.1264 237.603 46.8275 237.345C46.5554 237.11 46.2843 236.874 46.0142 236.637C45.7174 236.377 45.6876 235.925 45.9477 235.627ZM158.136 267.208C158.204 267.597 157.943 267.968 157.554 268.035C157.199 268.097 156.844 268.157 156.488 268.216C156.098 268.28 155.731 268.016 155.666 267.626C155.602 267.236 155.866 266.868 156.255 266.803C156.607 266.745 156.959 266.686 157.31 266.625C157.699 266.557 158.069 266.818 158.136 267.208ZM48.649 237.96C48.9011 237.656 49.3516 237.614 49.6553 237.867C49.9282 238.093 50.2021 238.319 50.4771 238.544C50.7828 238.794 50.8282 239.245 50.5786 239.551C50.3289 239.857 49.8787 239.903 49.5731 239.653C49.2952 239.426 49.0183 239.197 48.7424 238.968C48.4387 238.715 48.3969 238.264 48.649 237.96ZM154.597 267.792C154.654 268.183 154.384 268.546 153.993 268.603C153.636 268.655 153.279 268.706 152.922 268.755C152.531 268.809 152.17 268.535 152.117 268.144C152.063 267.752 152.336 267.391 152.727 267.337C153.081 267.288 153.434 267.238 153.787 267.187C154.178 267.13 154.54 267.401 154.597 267.792ZM51.4142 240.222C51.658 239.911 52.1073 239.857 52.4176 240.101C52.6965 240.321 52.9764 240.539 53.2572 240.756C53.5695 240.998 53.627 241.448 53.3856 241.76C53.1443 242.073 52.6955 242.131 52.3832 241.889C52.0993 241.669 51.8164 241.448 51.5345 241.227C51.2242 240.982 51.1703 240.532 51.4142 240.222ZM151.044 268.281C151.09 268.673 150.81 269.029 150.418 269.076C150.06 269.118 149.701 269.159 149.342 269.198C148.95 269.242 148.597 268.958 148.554 268.565C148.511 268.172 148.794 267.819 149.186 267.776C149.541 267.737 149.896 267.696 150.25 267.654C150.642 267.608 150.997 267.888 151.044 268.281ZM54.2352 242.405C54.4706 242.088 54.9183 242.022 55.235 242.258C55.5198 242.47 55.8055 242.681 56.0922 242.891C56.4109 243.124 56.4804 243.572 56.2475 243.891C56.0146 244.21 55.5675 244.28 55.2489 244.046C54.9591 243.834 54.6703 243.621 54.3824 243.407C54.0657 243.171 53.9998 242.723 54.2352 242.405ZM147.478 268.674C147.514 269.067 147.224 269.415 146.831 269.451C146.472 269.484 146.112 269.515 145.752 269.545C145.359 269.577 145.014 269.284 144.981 268.891C144.949 268.497 145.241 268.151 145.635 268.118C145.991 268.089 146.346 268.058 146.702 268.026C147.095 267.99 147.442 268.28 147.478 268.674ZM57.1186 244.516C57.3455 244.193 57.7912 244.115 58.1142 244.342C58.4039 244.546 58.6945 244.748 58.986 244.95C59.3108 245.174 59.3923 245.62 59.168 245.945C58.9438 246.271 58.4987 246.352 58.174 246.128C57.8793 245.924 57.5855 245.719 57.2927 245.513C56.9697 245.286 56.8918 244.839 57.1186 244.516ZM143.903 268.97C143.928 269.364 143.629 269.704 143.235 269.729C142.875 269.752 142.515 269.774 142.155 269.794C141.761 269.816 141.424 269.514 141.402 269.119C141.38 268.724 141.682 268.387 142.076 268.365C142.432 268.345 142.788 268.324 143.144 268.301C143.538 268.276 143.877 268.575 143.903 268.97ZM60.0515 246.544C60.2696 246.215 60.7131 246.125 61.042 246.343C61.3379 246.54 61.6346 246.735 61.9323 246.929C62.263 247.145 62.3564 247.589 62.141 247.92C61.9255 248.251 61.4828 248.344 61.1521 248.129C60.8512 247.932 60.5512 247.735 60.2522 247.536C59.9232 247.318 59.8334 246.874 60.0515 246.544ZM140.321 269.169C140.335 269.564 140.027 269.896 139.633 269.91C139.462 269.917 139.29 269.923 139.119 269.928C138.93 269.935 138.741 269.94 138.552 269.946C138.158 269.957 137.829 269.646 137.817 269.251C137.806 268.856 138.117 268.526 138.511 268.515C138.868 268.505 139.224 268.493 139.581 268.48C139.975 268.466 140.306 268.774 140.321 269.169ZM63.0432 248.496C63.2524 248.161 63.6932 248.059 64.0279 248.269C64.3281 248.457 64.6293 248.644 64.9313 248.829C65.2676 249.036 65.3729 249.477 65.1664 249.814C64.9599 250.151 64.5198 250.256 64.1835 250.049C63.8782 249.861 63.5739 249.673 63.2704 249.483C62.9357 249.273 62.834 248.832 63.0432 248.496ZM136.736 269.271C136.739 269.667 136.423 269.99 136.028 269.994C135.668 269.997 135.307 269.999 134.946 270C134.552 270.001 134.231 269.681 134.23 269.285C134.23 268.89 134.549 268.569 134.944 268.569C135.301 268.568 135.658 268.566 136.014 268.563C136.409 268.559 136.732 268.876 136.736 269.271ZM66.0815 250.365C66.2816 250.024 66.7196 249.91 67.0598 250.111C67.3659 250.291 67.6729 250.47 67.9808 250.648C68.3226 250.846 68.4396 251.284 68.2423 251.626C68.0449 251.968 67.6078 252.085 67.2661 251.888C66.9548 251.708 66.6445 251.527 66.3351 251.344C65.9949 251.144 65.8814 250.705 66.0815 250.365ZM133.149 269.277C133.142 269.672 132.816 269.987 132.422 269.98C132.061 269.974 131.701 269.966 131.34 269.957C130.945 269.947 130.633 269.618 130.644 269.223C130.654 268.828 130.982 268.516 131.376 268.526C131.733 268.535 132.09 268.543 132.447 268.549C132.841 268.556 133.156 268.882 133.149 269.277ZM69.1725 252.152C69.3634 251.806 69.7982 251.681 70.1436 251.872C70.4535 252.044 70.7643 252.214 71.0759 252.383C71.4229 252.572 71.5516 253.006 71.3635 253.354C71.1753 253.701 70.7416 253.83 70.3946 253.642C70.0796 253.471 69.7655 253.298 69.4522 253.125C69.1068 252.934 68.9816 252.498 69.1725 252.152ZM129.563 269.185C129.545 269.58 129.211 269.886 128.817 269.868C128.457 269.852 128.096 269.835 127.735 269.816C127.341 269.795 127.039 269.459 127.059 269.064C127.08 268.669 127.416 268.366 127.81 268.387C128.167 268.405 128.524 268.423 128.881 268.439C129.275 268.456 129.58 268.79 129.563 269.185ZM72.3079 253.855C72.4895 253.504 72.9207 253.367 73.2711 253.549C73.5867 253.713 73.9031 253.875 74.2204 254.037C74.5722 254.216 74.7126 254.647 74.5338 254.999C74.355 255.352 73.9249 255.492 73.573 255.313C73.2524 255.15 72.9325 254.986 72.6135 254.82C72.2631 254.638 72.1263 254.206 72.3079 253.855ZM125.98 268.997C125.952 269.391 125.61 269.688 125.216 269.66C124.857 269.634 124.497 269.607 124.137 269.578C123.744 269.547 123.45 269.202 123.482 268.808C123.513 268.414 123.857 268.12 124.251 268.151C124.607 268.18 124.963 268.207 125.318 268.232C125.712 268.26 126.008 268.603 125.98 268.997ZM75.4889 255.474C75.661 255.118 76.0885 254.97 76.4436 255.142C76.7623 255.297 77.0819 255.45 77.4022 255.603C77.7588 255.772 77.9106 256.199 77.7413 256.556C77.572 256.913 77.1458 257.065 76.7892 256.896C76.4654 256.742 76.1424 256.586 75.8203 256.43C75.4651 256.258 75.3168 255.83 75.4889 255.474ZM122.404 268.712C122.365 269.105 122.015 269.393 121.622 269.354C121.264 269.319 120.906 269.282 120.547 269.243C120.155 269.202 119.871 268.849 119.912 268.456C119.954 268.063 120.306 267.778 120.699 267.82C121.053 267.858 121.408 267.894 121.763 267.929C122.155 267.968 122.442 268.319 122.404 268.712ZM78.7124 257.007C78.875 256.647 79.2983 256.487 79.658 256.649C79.9821 256.796 80.307 256.942 80.6327 257.086C80.9937 257.246 81.1568 257.669 80.9971 258.03C80.8375 258.391 80.4154 258.555 80.0545 258.395C79.7253 258.249 79.3969 258.102 79.0693 257.954C78.7096 257.791 78.5499 257.367 78.7124 257.007ZM118.837 268.331C118.788 268.723 118.431 269.001 118.039 268.952C117.682 268.907 117.324 268.86 116.967 268.812C116.576 268.76 116.301 268.4 116.353 268.008C116.406 267.616 116.765 267.341 117.157 267.394C117.51 267.441 117.864 267.487 118.217 267.531C118.609 267.581 118.886 267.939 118.837 268.331ZM81.9738 258.452C82.1267 258.087 82.5456 257.916 82.9095 258.069C83.2361 258.207 83.5635 258.343 83.8917 258.478C84.2567 258.628 84.431 259.047 84.281 259.412C84.131 259.778 83.7135 259.952 83.3485 259.802C83.0168 259.666 82.6858 259.528 82.3557 259.389C81.9919 259.236 81.8209 258.816 81.9738 258.452ZM115.282 267.854C115.223 268.245 114.858 268.513 114.468 268.453C114.112 268.399 113.756 268.343 113.399 268.285C113.01 268.222 112.745 267.855 112.808 267.465C112.87 267.075 113.237 266.809 113.627 266.872C113.979 266.929 114.332 266.984 114.684 267.038C115.074 267.098 115.342 267.463 115.282 267.854ZM85.2763 259.811C85.4195 259.443 85.8337 259.26 86.2015 259.404C86.5332 259.533 86.8657 259.661 87.199 259.788C87.5679 259.928 87.7533 260.342 87.6131 260.711C87.4729 261.081 87.0601 261.266 86.6912 261.126C86.3544 260.998 86.0183 260.868 85.683 260.737C85.3152 260.594 85.1331 260.179 85.2763 259.811ZM111.741 267.282C111.671 267.671 111.299 267.93 110.911 267.86C110.711 267.824 110.511 267.787 110.311 267.75C110.156 267.721 110.001 267.692 109.847 267.663C109.459 267.59 109.204 267.215 109.277 266.827C109.35 266.439 109.724 266.183 110.112 266.256C110.463 266.323 110.814 266.388 111.165 266.451C111.553 266.521 111.811 266.893 111.741 267.282ZM88.6081 261.079C88.7415 260.707 89.1507 260.514 89.5222 260.648C89.8557 260.768 90.19 260.886 90.5251 261.004C90.8976 261.134 91.0938 261.543 90.9634 261.916C90.833 262.289 90.4253 262.485 90.0528 262.355C89.7142 262.236 89.3763 262.116 89.0392 261.995C88.6677 261.861 88.4747 261.451 88.6081 261.079ZM108.216 266.616C108.136 267.003 107.758 267.252 107.371 267.171C107.018 267.098 106.665 267.023 106.312 266.946C105.926 266.863 105.681 266.482 105.764 266.095C105.848 265.709 106.228 265.464 106.614 265.547C106.963 265.623 107.313 265.697 107.662 265.77C108.049 265.85 108.297 266.229 108.216 266.616ZM91.98 262.262C92.1035 261.886 92.5074 261.682 92.8823 261.806C93.2198 261.917 93.5579 262.027 93.8968 262.136C94.2726 262.257 94.4796 262.66 94.3591 263.036C94.2386 263.413 93.8362 263.62 93.4604 263.499C93.1179 263.389 92.7761 263.278 92.4351 263.165C92.0602 263.042 91.8565 262.637 91.98 262.262ZM104.71 265.857C104.62 266.241 104.235 266.48 103.851 266.389C103.683 266.349 103.515 266.309 103.347 266.269C103.164 266.225 102.98 266.181 102.797 266.136C102.414 266.042 102.179 265.655 102.273 265.271C102.366 264.887 102.753 264.652 103.136 264.745C103.484 264.83 103.831 264.914 104.179 264.996C104.563 265.087 104.801 265.472 104.71 265.857ZM95.3722 263.351C95.4858 262.973 95.8843 262.758 96.2622 262.872C96.6018 262.974 96.942 263.075 97.2829 263.175C97.6618 263.286 97.8792 263.683 97.7686 264.062C97.658 264.442 97.2612 264.66 96.8823 264.549C96.5378 264.448 96.194 264.346 95.8508 264.243C95.4729 264.129 95.2586 263.73 95.3722 263.351ZM100.352 265.514C100.177 265.468 100.002 265.421 99.8276 265.374C99.6534 265.328 99.4793 265.281 99.3054 265.233C98.9246 265.129 98.6999 264.736 98.8035 264.355C98.9072 263.973 99.2999 263.748 99.6807 263.852C99.8528 263.899 100.025 263.946 100.198 263.992C100.37 264.038 100.543 264.084 100.716 264.13C101.098 264.231 101.325 264.622 101.225 265.004C101.124 265.387 100.733 265.615 100.352 265.514Z" fill="#FFCC80"/>
</g>
<defs>
<linearGradient id="paint0_linear" x1="374.092" y1="320.601" x2="374.092" y2="431.7" gradientUnits="userSpaceOnUse">
<stop stop-color="#FFCC80"/>
<stop offset="1" stop-color="#F0C078"/>
</linearGradient>
<linearGradient id="paint1_linear" x1="374.092" y1="320.601" x2="374.092" y2="431.7" gradientUnits="userSpaceOnUse">
<stop stop-color="#FFCC80"/>
<stop offset="1" stop-color="#F0C078"/>
</linearGradient>
<linearGradient id="paint2_linear" x1="402.598" y1="186.184" x2="402.598" y2="325.238" gradientUnits="userSpaceOnUse">
<stop stop-color="#FF9800"/>
<stop offset="1" stop-color="#DE8400"/>
</linearGradient>
<clipPath id="clip0">
<rect width="587" height="614" fill="white"/>
</clipPath>
</defs>
</svg>
