<svg width="346" height="320" viewBox="0 0 346 320" fill="none" xmlns="http://www.w3.org/2000/svg">
<circle cx="173" cy="160" r="160" fill="#4C2590"/>
<path d="M0.0751801 170C0.0751801 161.75 6.76434 155 15.0318 155H186.338C194.606 155 201.37 161.75 201.37 170V260C201.37 268.25 194.606 275 186.338 275H30.0637L1.52588e-05 305L0.0751801 170Z" fill="#EDE7F6"/>
<ellipse rx="9.24657" ry="8.21918" transform="matrix(-1 0 0 1 153.082 216.644)" fill="#FF9800"/>
<ellipse rx="9.24657" ry="8.21918" transform="matrix(-1 0 0 1 103.767 216.644)" fill="#FF9800"/>
<ellipse rx="9.24657" ry="8.21918" transform="matrix(-1 0 0 1 54.452 216.644)" fill="#FF9800"/>
<path d="M345.295 34C345.295 25.75 338.606 19 330.338 19H159.032C150.764 19 144 25.75 144 34V124C144 132.25 150.764 139 159.032 139H315.306L345.37 169L345.295 34Z" fill="#FF9800"/>
<ellipse cx="192.288" cy="80.6439" rx="9.24658" ry="8.21918" fill="#EDE7F6"/>
<ellipse cx="241.603" cy="80.6439" rx="9.24658" ry="8.21918" fill="#EDE7F6"/>
<ellipse cx="290.918" cy="80.6439" rx="9.24658" ry="8.21918" fill="#EDE7F6"/>
</svg>



