<svg width="224" height="59" viewBox="0 0 224 59" fill="none" xmlns="http://www.w3.org/2000/svg">
<path d="M98.8101 43.7022C96.4143 43.7022 94.2581 43.1782 92.3414 42.13C90.4248 41.0519 88.9124 39.5395 87.8044 37.5929C86.7263 35.6463 86.1872 33.4002 86.1872 30.8547C86.1872 28.3091 86.7412 26.0631 87.8493 24.1165C88.9873 22.1699 90.5296 20.6725 92.4762 19.6243C94.4228 18.5462 96.594 18.0072 98.9898 18.0072C101.386 18.0072 103.557 18.5462 105.503 19.6243C107.45 20.6725 108.977 22.1699 110.085 24.1165C111.223 26.0631 111.792 28.3091 111.792 30.8547C111.792 33.4002 111.208 35.6463 110.041 37.5929C108.902 39.5395 107.345 41.0519 105.369 42.13C103.422 43.1782 101.236 43.7022 98.8101 43.7022ZM98.8101 38.2218C99.9481 38.2218 101.011 37.9523 102 37.4132C103.018 36.8442 103.826 36.0057 104.425 34.8976C105.024 33.7896 105.324 32.4419 105.324 30.8547C105.324 28.4888 104.695 26.677 103.437 25.4192C102.209 24.1314 100.697 23.4876 98.9 23.4876C97.1031 23.4876 95.5908 24.1314 94.3629 25.4192C93.165 26.677 92.566 28.4888 92.566 30.8547C92.566 33.2206 93.15 35.0474 94.318 36.3351C95.5159 37.5929 97.0133 38.2218 98.8101 38.2218Z" fill="white"/>
<path d="M124.806 22.0052C125.615 20.8672 126.723 19.9238 128.13 19.1751C129.568 18.3965 131.2 18.0072 133.027 18.0072C135.153 18.0072 137.07 18.5312 138.777 19.5794C140.514 20.6276 141.876 22.125 142.864 24.0716C143.883 25.9882 144.392 28.2193 144.392 30.7649C144.392 33.3104 143.883 35.5715 142.864 37.548C141.876 39.4946 140.514 41.007 138.777 42.0851C137.07 43.1632 135.153 43.7022 133.027 43.7022C131.2 43.7022 129.583 43.3279 128.175 42.5792C126.798 41.8305 125.674 40.8872 124.806 39.7492V55.1572H118.517V18.4114H124.806V22.0052ZM137.968 30.7649C137.968 29.2675 137.654 27.9797 137.025 26.9016C136.426 25.7935 135.617 24.955 134.599 24.386C133.611 23.817 132.532 23.5325 131.365 23.5325C130.227 23.5325 129.148 23.832 128.13 24.4309C127.142 24.9999 126.333 25.8385 125.704 26.9465C125.105 28.0546 124.806 29.3573 124.806 30.8547C124.806 32.3521 125.105 33.6548 125.704 34.7629C126.333 35.8709 127.142 36.7244 128.13 37.3234C129.148 37.8924 130.227 38.1769 131.365 38.1769C132.532 38.1769 133.611 37.8774 134.599 37.2785C135.617 36.6795 136.426 35.826 137.025 34.7179C137.654 33.6099 137.968 32.2922 137.968 30.7649Z" fill="white"/>
<path d="M158.395 23.5774V35.6164C158.395 36.4549 158.59 37.0688 158.979 37.4582C159.399 37.8175 160.087 37.9972 161.046 37.9972H163.966V43.298H160.012C154.712 43.298 152.061 40.7225 152.061 35.5715V23.5774H149.097V18.4114H152.061V12.2572H158.395V18.4114H163.966V23.5774H158.395Z" fill="white"/>
<path d="M168.983 30.7649C168.983 28.2493 169.477 26.0182 170.466 24.0716C171.484 22.125 172.846 20.6276 174.553 19.5794C176.29 18.5312 178.222 18.0072 180.348 18.0072C182.205 18.0072 183.822 18.3815 185.2 19.1302C186.607 19.8789 187.73 20.8222 188.569 21.9602V18.4114H194.903V43.298H188.569V39.6593C187.76 40.8273 186.637 41.8006 185.2 42.5792C183.792 43.3279 182.16 43.7022 180.303 43.7022C178.207 43.7022 176.29 43.1632 174.553 42.0851C172.846 41.007 171.484 39.4946 170.466 37.548C169.477 35.5715 168.983 33.3104 168.983 30.7649ZM188.569 30.8547C188.569 29.3274 188.269 28.0246 187.67 26.9465C187.071 25.8385 186.263 24.9999 185.245 24.4309C184.226 23.832 183.133 23.5325 181.965 23.5325C180.797 23.5325 179.719 23.817 178.731 24.386C177.743 24.955 176.934 25.7935 176.305 26.9016C175.706 27.9797 175.407 29.2675 175.407 30.7649C175.407 32.2622 175.706 33.5799 176.305 34.7179C176.934 35.826 177.743 36.6795 178.731 37.2785C179.749 37.8774 180.827 38.1769 181.965 38.1769C183.133 38.1769 184.226 37.8924 185.245 37.3234C186.263 36.7244 187.071 35.8859 187.67 34.8078C188.269 33.6997 188.569 32.382 188.569 30.8547Z" fill="white"/>
<path d="M216.902 43.298L211.781 35.5715L207.244 43.298H200.506L208.637 30.8098L200.416 18.4114H207.514L212.59 26.093L217.172 18.4114H223.91L215.734 30.8098L224 43.298H216.902Z" fill="white"/>
<path fill-rule="evenodd" clip-rule="evenodd" d="M1 58.63L1 -3.43323e-05L7.94572 -3.4035e-05L7.94572 51.6843L59.63 51.6843L59.63 58.63L1 58.63Z" fill="white"/>
<path fill-rule="evenodd" clip-rule="evenodd" d="M23.5598 31.2612C21.5921 34.283 20.2029 38.4784 20.2029 42.9H13.2572C13.2572 37.1074 15.0512 31.5992 17.7394 27.471C20.3084 23.5258 24.2864 20.02 28.9872 20.02C31.7867 20.02 34.0931 20.7112 36.1264 22.2668C37.9711 23.678 39.3901 25.6687 40.745 27.6836C42.7843 30.7164 44.8983 32.0741 47.3729 32.0741C48.7352 32.0741 49.6494 31.7152 50.3366 31.2014C51.0649 30.6568 51.7607 29.7679 52.3594 28.3907C53.5971 25.5437 54.1143 21.3344 54.1143 16.3429H61.0601C61.0601 21.5656 60.5558 26.9584 58.7292 31.1599C57.7958 33.3069 56.4488 35.3039 54.4958 36.7641C52.5017 38.2551 50.0964 39.0198 47.3729 39.0198C41.6761 39.0198 37.7034 35.6077 34.9811 31.5593C33.5887 29.4885 32.7316 28.4149 31.906 27.7832C31.2691 27.296 30.5113 26.9657 28.9872 26.9657C27.7973 26.9657 25.6467 28.0564 23.5598 31.2612Z" fill="white"/>
</svg>
