<svg width="51" height="62" viewBox="0 0 51 62" fill="none" xmlns="http://www.w3.org/2000/svg">
<path d="M0 13.8333C0 12.2685 1.26853 11 2.83333 11H48.1667C49.7315 11 51 12.2685 51 13.8333V59.1667C51 60.7315 49.7315 62 48.1667 62H2.83333C1.26853 62 0 60.7315 0 59.1667V13.8333Z" fill="#FF9800"/>
<rect x="9" width="7" height="21" rx="3" fill="#EDE7F6"/>
<rect x="35" width="7" height="21" rx="3" fill="#EDE7F6"/>
<rect x="5" y="26" width="41" height="29" fill="#FFCC80"/>
<circle cx="13.6395" cy="31.5421" r="1.77907" fill="#FF9800"/>
<circle cx="13.6395" cy="39.8444" r="1.77907" fill="#FF9800"/>
<circle cx="13.6395" cy="48.1467" r="1.77907" fill="#FF9800"/>
<circle cx="25.5" cy="31.5421" r="1.77907" fill="#FF9800"/>
<circle cx="25.5" cy="39.8444" r="1.77907" fill="#FF9800"/>
<circle cx="25.5" cy="48.1467" r="1.77907" fill="#FF9800"/>
<circle cx="37.3605" cy="31.5421" r="1.77907" fill="#FF9800"/>
<circle cx="37.3605" cy="39.8444" r="1.77907" fill="#FF9800"/>
<circle cx="37.3605" cy="48.1467" r="1.77907" fill="#B089F4"/>
</svg>
