<svg width="42" height="53" viewBox="0 0 42 53" fill="none" xmlns="http://www.w3.org/2000/svg">
<g clip-path="url(#clip0)">
<path d="M42 2.25764C42 1.01078 40.978 0 39.7174 0H12.8938C12.2884 0 11.7078 0.237857 11.2797 0.661246L0.668561 11.1563C0.240488 11.5797 0 12.154 0 12.7527V50.7424C0 51.9892 1.02196 53 2.28261 53H39.7174C40.978 53 42 51.9892 42 50.7424V2.25764Z" fill="#FF9800"/>
<path d="M12 12H0L12 0V12Z" fill="#FFCC80"/>
<path d="M10 25.8257C10 24.3828 10.4812 23.2178 11.4437 22.3307C12.4062 21.4436 13.6967 21 15.3154 21C16.956 21 18.2521 21.4436 19.2036 22.3307C20.1551 23.2071 20.6309 24.3988 20.6309 25.9058V27.0601C20.6309 28.503 20.1551 29.6627 19.2036 30.5391C18.2521 31.4155 16.9669 31.8537 15.3482 31.8537C13.7405 31.8537 12.4444 31.4208 11.4601 30.5551C10.4867 29.6787 10 28.4816 10 26.9639V25.8257ZM13.56 27.0601C13.56 27.6159 13.7186 28.0701 14.0358 28.4228C14.353 28.7649 14.7905 28.9359 15.3482 28.9359C16.4966 28.9359 17.0708 28.2198 17.0708 26.7876V25.8257C17.0708 25.2699 16.9177 24.8156 16.6115 24.4629C16.3052 24.0995 15.8732 23.9178 15.3154 23.9178C14.7795 23.9178 14.353 24.0942 14.0358 24.4469C13.7186 24.7889 13.56 25.2592 13.56 25.8577V27.0601ZM21.3527 38.9559C21.3527 37.5023 21.834 36.3373 22.7964 35.4609C23.7698 34.5845 25.0604 34.1463 26.6682 34.1463C28.2978 34.1463 29.5938 34.5792 30.5563 35.4449C31.5188 36.3106 32 37.5184 32 39.0681V40.1904C32 41.644 31.5242 42.809 30.5727 43.6854C29.6212 44.5618 28.3306 45 26.701 45C25.0932 45 23.7972 44.5671 22.8128 43.7014C21.8394 42.825 21.3527 41.6279 21.3527 40.1102V38.9559ZM24.8963 40.1904C24.8963 40.6927 25.0713 41.1363 25.4213 41.521C25.7713 41.8951 26.1979 42.0822 26.701 42.0822C27.7619 42.0822 28.3361 41.5905 28.4236 40.6072L28.44 38.9559C28.44 38.3894 28.2814 37.9352 27.9642 37.5932C27.647 37.2405 27.215 37.0641 26.6682 37.0641C26.1432 37.0641 25.7221 37.2298 25.4049 37.5611C25.0877 37.8818 24.9182 38.32 24.8963 38.8758V40.1904ZM16.3982 42.9319L13.8225 41.6653L25.4869 23.4208L28.0626 24.6874L16.3982 42.9319Z" fill="#EDE7F6"/>
</g>
<defs>
<clipPath id="clip0">
<rect width="41.8421" height="53" fill="white"/>
</clipPath>
</defs>
</svg>
