<svg width="65" height="62" viewBox="0 0 65 62" fill="none" xmlns="http://www.w3.org/2000/svg">
<g clip-path="url(#clip0)">
<path d="M45.8804 0.904816C51.6515 2.69521 56.6723 6.33652 60.1668 11.266C63.6613 16.1955 65.4349 22.1386 65.2136 28.177L37.7321 27.1699L45.8804 0.904816Z" fill="#FF9800"/>
<path d="M55.7471 34.9026C55.523 40.6441 53.506 46.1713 49.9796 50.7078C46.4531 55.2443 41.5942 58.5622 36.0853 60.1956C30.5764 61.829 24.6942 61.6958 19.2649 59.8146C13.8356 57.9335 9.13194 54.399 5.81447 49.7075C2.497 45.016 0.732406 39.4031 0.768512 33.6573C0.804617 27.9115 2.63961 22.3213 6.01578 17.6718C9.39195 13.0224 14.1397 9.54725 19.5922 7.7345C25.0447 5.92175 30.9281 5.86246 36.416 7.56494L28.268 33.8301L55.7471 34.9026Z" fill="#EDE7F6"/>
</g>
<defs>
<clipPath id="clip0">
<rect width="65" height="62" fill="white"/>
</clipPath>
</defs>
</svg>
