<svg width="345" height="347" viewBox="0 0 345 347" fill="none" xmlns="http://www.w3.org/2000/svg">
<path d="M172.5 347C267.769 347 345 269.769 345 174.5C345 79.2309 267.769 2 172.5 2C77.2309 2 0 79.2309 0 174.5C0 269.769 77.2309 347 172.5 347Z" fill="#4C2590"/>
<path fill-rule="evenodd" clip-rule="evenodd" d="M294.494 102.987C322.38 102.987 344.987 80.3803 344.987 52.4935C344.987 24.6067 322.38 2 294.494 2C266.607 2 244 24.6067 244 52.4935C244 80.3803 266.607 102.987 294.494 102.987Z" fill="#FFCC80"/>
<path d="M272.052 75.8701H319.74V142L295.896 120.961L272.052 142V75.8701Z" fill="#EDE7F6"/>
<circle cx="294.493" cy="52.4935" r="39.2727" fill="#FF9800"/>
</svg>
