<svg width="345" height="347" viewBox="0 0 345 347" fill="none" xmlns="http://www.w3.org/2000/svg">
<g clip-path="url(#clip0)">
<path d="M172.5 347C267.769 347 345 269.769 345 174.5C345 79.2309 267.769 2 172.5 2C77.2309 2 0 79.2309 0 174.5C0 269.769 77.2309 347 172.5 347Z" fill="#4C2590"/>
<path d="M205.899 31.3248H192.801C190.772 31.3248 189.127 32.9695 189.127 34.9987V135.456C189.127 137.486 190.772 139.13 192.801 139.13H205.899C207.928 139.13 209.573 137.486 209.573 135.456V34.9987C209.573 32.9695 207.928 31.3248 205.899 31.3248Z" fill="#EDE7F6"/>
<path d="M265.378 31.3248H252.28C250.251 31.3248 248.606 32.9695 248.606 34.9987V135.456C248.606 137.486 250.251 139.13 252.28 139.13H265.378C267.407 139.13 269.052 137.486 269.052 135.456V34.9987C269.052 32.9695 267.407 31.3248 265.378 31.3248Z" fill="#EDE7F6"/>
<path d="M324.857 31.3248H311.759C309.73 31.3248 308.085 32.9695 308.085 34.9987V135.456C308.085 137.486 309.73 139.13 311.759 139.13H324.857C326.886 139.13 328.531 137.486 328.531 135.456V34.9987C328.531 32.9695 326.886 31.3248 324.857 31.3248Z" fill="#EDE7F6"/>
<path d="M259.699 2.08266C259.187 1.97245 258.657 1.97245 258.145 2.08266L175.482 19.9637C173.791 20.3299 172.584 21.8252 172.584 23.5544V34.1843C172.584 36.2135 174.229 37.8583 176.258 37.8583H341.586C343.615 37.8583 345.259 36.2135 345.259 34.1843V23.5544C345.259 21.8252 344.053 20.3299 342.362 19.9637L259.699 2.08266Z" fill="#FF9800"/>
<path d="M341.586 128.099H176.258C174.229 128.099 172.584 129.743 172.584 131.773V150.326C172.584 152.355 174.229 154 176.258 154H341.586C343.615 154 345.259 152.355 345.259 150.326V131.773C345.259 129.743 343.615 128.099 341.586 128.099Z" fill="#FF9800"/>
<path fill-rule="evenodd" clip-rule="evenodd" d="M147.5 128C149.433 128 151 129.567 151 131.5L151 211.5C151 213.433 149.433 215 147.5 215C145.567 215 144 213.433 144 211.5L144 131.5C144 129.567 145.567 128 147.5 128Z" fill="#FFCC80"/>
<path fill-rule="evenodd" clip-rule="evenodd" d="M122.5 128C124.433 128 126 129.567 126 131.5L126 211.5C126 213.433 124.433 215 122.5 215C120.567 215 119 213.433 119 211.5L119 131.5C119 129.567 120.567 128 122.5 128Z" fill="#FFCC80"/>
<path fill-rule="evenodd" clip-rule="evenodd" d="M98.5 128C100.433 128 102 129.567 102 131.5L102 211.5C102 213.433 100.433 215 98.5 215C96.567 215 95 213.433 95 211.5L95 131.5C95 129.567 96.567 128 98.5 128Z" fill="#FFCC80"/>
<circle cx="123" cy="187" r="10" fill="#FF9800"/>
<circle cx="147" cy="163" r="10" fill="#FF9800"/>
<circle cx="98" cy="152" r="10" fill="#FF9800"/>
</g>
<defs>
<clipPath id="clip0">
<rect width="345" height="347" fill="white"/>
</clipPath>
</defs>
</svg>
